<svg width="130" height="121" viewBox="0 0 130 121" fill="none" xmlns="http://www.w3.org/2000/svg">
<g id="Group 105">
<path id="Vector" d="M7.31897 0.609375C4.8092 13.4911 14.8483 26.3728 26.6801 30.7894C38.5118 35.206 52.1363 33.3657 64.6851 30.7894C77.234 28.213 90.1414 25.2686 103.049 27.4769C115.956 29.6852 128.146 39.2545 129.581 52.1362C131.015 63.9138 122.41 74.5872 115.598 83.7884C122.051 76.4274 118.466 62.4416 111.654 55.4486C104.841 48.4557 94.0853 46.9835 84.7633 48.0877C75.4413 49.1918 41.7387 57.6569 24.5288 46.6155C3.37504 33.3657 4.8092 11.2828 7.31897 0.609375Z" fill="white"/>
<path id="Vector_2" d="M0.395179 24.6864C-1.75337 34.2604 12.5703 69.6107 70.2232 64.0872C114.269 60.0367 96.722 96.4917 91.3506 103.488C96.0058 97.9646 98.1544 76.9754 68.7908 79.9212C0.0370873 86.5494 -1.39528 32.4193 0.395179 24.6864Z" fill="white"/>
<path id="Vector_3" d="M3.76156 59.7101C4.47994 63.4023 20.2842 94.7858 60.5133 91.0936C92.1219 88.1399 78.1135 116.939 75.24 121C78.1135 117.677 70.9297 105.862 57.999 105.862C17.4107 105.862 2.68399 64.1407 3.76156 59.7101Z" fill="white"/>
</g>
</svg>
