<svg width="115" height="115" viewBox="0 0 115 115" fill="none" xmlns="http://www.w3.org/2000/svg">
<g id="logoi-01">
<g id="Group">
<g id="Group_2">
<path id="Vector" fill-rule="evenodd" clip-rule="evenodd" d="M38.5525 39.3299C44.8764 33.6809 52.718 29.3013 61.1288 27.651C68.5277 26.1912 76.559 26.8894 82.8829 31.4594C84.0845 32.348 85.2228 33.3001 86.2346 34.4426C87.3729 35.712 88.3847 37.0449 89.1436 38.5683C92.8114 45.2329 92.6217 53.2304 90.4083 60.3393C87.8788 68.4003 82.6932 75.6361 76.4958 81.2217C70.1719 86.8707 62.3303 91.2503 53.9195 92.9006C46.5206 94.3604 38.4893 93.6622 32.1654 89.0922C30.9638 88.2036 29.8255 87.2515 28.8137 86.109C27.6754 84.8396 26.6636 83.5067 25.9047 81.9833C22.1736 75.2553 22.3634 67.2578 24.64 60.1489C27.1695 52.1513 32.2919 44.9155 38.5525 39.3299Z" fill="white"/>
<path id="Vector_2" fill-rule="evenodd" clip-rule="evenodd" d="M38.5446 39.3665C44.8844 33.7016 52.7458 29.3096 61.1143 27.6547C68.5319 26.1907 76.5835 26.8909 82.8599 31.4101C84.0645 32.3012 85.2057 33.256 86.22 34.4017C87.3612 35.6747 88.3122 37.0114 89.1364 38.539C92.8135 45.2224 92.6233 53.2424 90.4043 60.3076C87.8684 68.3276 82.6697 75.5838 76.4567 81.1851C70.1169 86.8501 62.2555 91.242 53.8869 92.8969C46.4693 94.3609 38.4178 93.6607 32.1413 89.1415C30.9368 88.2504 29.7956 87.2956 28.7812 86.1499C27.6401 84.8769 26.6891 83.5402 25.8649 82.0126C22.1878 75.3929 22.378 67.3729 24.5969 60.244C27.1963 52.224 32.3315 44.9678 38.5446 39.3665Z" fill="#FFFDFE"/>
<path id="Vector_3" fill-rule="evenodd" clip-rule="evenodd" d="M38.5778 39.3783C44.9287 33.708 52.8039 29.3119 61.1872 27.6554C68.5543 26.19 76.62 26.8908 82.9074 31.4144C84.1141 32.3063 85.2573 33.262 86.2099 34.4088C87.3531 35.6831 88.3057 37.021 89.1313 38.4864C92.8149 45.1761 92.6243 53.1401 90.4015 60.2758C87.8611 68.3035 82.7169 75.5666 76.4294 81.1733C70.0785 86.8436 62.2033 91.2397 53.8201 92.8962C46.3895 94.3616 38.3873 93.6608 32.0363 89.1372C30.8296 88.2453 29.6865 87.2896 28.7338 86.1428C27.5907 84.8685 26.638 83.5306 25.8124 82.0652C22.1923 75.3755 22.3829 67.3478 24.6057 60.2758C27.1461 52.1844 32.3539 44.985 38.5778 39.3783Z" fill="#FFFAFC"/>
<path id="Vector_4" fill-rule="evenodd" clip-rule="evenodd" d="M39.141 39.9109C45.4262 34.3596 53.2198 30.0558 61.4535 28.4341C68.8072 26.9995 76.7894 27.6856 83.0117 32.1142C84.2059 32.9874 85.3373 33.923 86.2801 34.9834C87.4114 36.2308 88.3542 37.5407 89.1713 38.9753C92.8167 45.5245 92.6281 53.3213 90.3655 60.2447C87.8514 68.1038 82.7603 75.2144 76.6008 80.641C70.3156 86.1922 62.522 90.496 54.2883 92.1177C46.9346 93.5523 39.0153 92.8662 32.7929 88.4377C31.5987 87.5645 30.4674 86.6289 29.5246 85.5685C28.3933 84.321 27.4505 83.0112 26.6334 81.5766C22.988 75.0273 23.1765 67.2306 25.3764 60.3071C27.8904 52.448 32.9815 45.3374 39.141 39.9109Z" fill="#FEF7FA"/>
<path id="Vector_5" fill-rule="evenodd" clip-rule="evenodd" d="M39.1787 39.8775C45.414 34.3228 53.2238 30.0163 61.5375 28.3935C68.8434 27.0204 76.7792 27.707 83.0145 32.1383C84.2111 33.0121 85.2818 33.9483 86.2895 35.0093C87.4232 36.1952 88.368 37.5682 89.1867 39.0037C92.7767 45.4947 92.6508 53.2964 90.3834 60.2242C87.8641 68.0883 82.7625 75.1409 76.5903 80.6333C70.355 86.1881 62.5452 90.4946 54.2315 92.1173C46.9255 93.5528 38.9268 92.8663 32.7545 88.4349C31.5578 87.5612 30.4871 86.625 29.4794 85.5639C28.3457 84.3781 27.401 83.005 26.5822 81.5695C22.9922 75.0161 23.1812 67.2145 25.3856 60.2866C27.9049 52.4226 33.0064 45.3699 39.1787 39.8775Z" fill="#FEF5F9"/>
<path id="Vector_6" fill-rule="evenodd" clip-rule="evenodd" d="M39.1987 39.8848C45.4421 34.3177 53.262 30.0016 61.5234 28.4378C68.8389 26.9991 76.785 27.6872 83.0284 32.0658C84.2266 32.9415 85.2987 33.8798 86.3077 34.9432C87.4429 36.1317 88.3888 37.5078 89.2087 38.9465C92.8033 45.452 92.6141 53.271 90.4069 60.2142C87.8843 68.0958 82.7761 75.1642 76.5958 80.6688C70.3524 86.2359 62.5325 90.552 54.2711 92.1158C46.9556 93.5545 39.0095 92.8664 32.7661 88.4252C31.5679 87.5495 30.4958 86.6112 29.4868 85.5478C28.3516 84.3594 27.4057 82.9832 26.5858 81.5445C22.9912 75.0391 23.1804 67.2201 25.3876 60.2768C27.9102 52.4578 33.0184 45.3269 39.1987 39.8848Z" fill="#FEF2F7"/>
<path id="Vector_7" fill-rule="evenodd" clip-rule="evenodd" d="M39.1687 39.8951C45.4231 34.3224 53.2569 30.0647 61.5329 28.4367C68.8612 26.9966 76.8213 27.6853 83.0125 32.1309C84.2129 33.0075 85.2868 33.9467 86.2977 35.0112C87.4348 36.2008 88.3825 37.5784 89.2037 39.0185C92.8047 45.5303 92.6152 53.2945 90.4041 60.2446C87.877 68.134 82.7598 75.2094 76.5686 80.6568C70.3143 86.2294 62.4805 90.4872 54.2045 92.1152C46.8761 93.5553 38.916 92.8665 32.7248 88.4209C31.5245 87.5443 30.4505 86.6051 29.4397 85.5407C28.3025 84.351 27.3549 82.9735 26.5336 81.5334C22.9958 75.0841 23.1853 67.2574 25.3965 60.3699C27.9235 52.4805 32.9775 45.4051 39.1687 39.8951Z" fill="#FEF2F7"/>
<path id="Vector_8" fill-rule="evenodd" clip-rule="evenodd" d="M39.2226 39.9068C45.4781 34.3288 53.2501 30.0669 61.5907 28.4374C68.8572 26.9959 76.7555 27.6853 83.011 32.1351C84.2115 32.9499 85.2857 33.9527 86.2967 35.0182C87.434 36.209 88.3818 37.5878 89.2032 39.0293C92.8049 45.5475 92.6153 53.3191 90.4038 60.2133C87.8763 68.0475 82.7582 75.1924 76.6291 80.6451C70.3736 86.2231 62.6017 90.485 54.2611 92.1145C46.9314 93.556 39.0331 92.8666 32.8408 88.4167C31.6402 87.6019 30.5661 86.5991 29.5551 85.5337C28.4177 84.3429 27.4699 82.964 26.6485 81.5225C22.9837 75.0671 23.1732 67.2328 25.3848 60.3386C27.9122 52.5043 33.0304 45.3594 39.2226 39.9068Z" fill="#FDF0F6"/>
<path id="Vector_9" fill-rule="evenodd" clip-rule="evenodd" d="M39.0277 39.9431C45.2271 34.3492 52.9294 30.0752 61.1327 28.4411C68.3967 26.9954 76.2242 27.6868 82.361 32.0865C83.5508 32.9036 84.6154 33.9092 85.6173 34.9777C86.7445 36.1719 87.6838 37.5547 88.4352 38.9374C92.0046 45.4741 91.8167 53.2679 89.625 60.1816C87.1202 68.0382 82.0479 75.1406 75.9737 80.6088C69.7743 86.2026 62.072 90.4766 53.8687 92.1108C46.6674 93.5564 38.7772 92.865 32.6404 88.4653C31.4506 87.6483 30.3861 86.6426 29.3841 85.5741C28.257 84.3799 27.3177 82.9972 26.5662 81.6144C22.9968 75.0777 23.1847 67.284 25.3764 60.3702C27.8812 52.5136 32.9535 45.4113 39.0277 39.9431Z" fill="#FCEDF4"/>
<path id="Vector_10" fill-rule="evenodd" clip-rule="evenodd" d="M39.0418 39.9549C45.247 34.4185 52.9565 30.0775 61.1674 28.4417C68.3755 26.9947 76.2103 27.6868 82.3528 32.0907C83.5437 32.9086 84.6092 33.9152 85.6121 34.9847C86.7403 36.1801 87.6805 37.5013 88.4326 38.9483C92.0053 45.4283 91.8173 53.2296 89.6235 60.1501C87.1164 68.0143 82.1021 75.1235 75.9596 80.597C69.7544 86.1334 62.0449 90.4744 53.834 92.1101C46.626 93.5572 38.7911 92.8651 32.6486 88.4612C31.4577 87.6433 30.3922 86.6367 29.3893 85.5671C28.2611 84.3718 27.3209 83.0506 26.5688 81.6036C22.9961 75.1235 23.1841 67.3222 25.3779 60.4647C27.885 52.5376 32.962 45.4913 39.0418 39.9549Z" fill="#FCEBF3"/>
<path id="Vector_11" fill-rule="evenodd" clip-rule="evenodd" d="M39.0405 39.9155C45.2683 34.3684 53.0059 30.0189 61.1838 28.443C68.4181 26.9932 76.2815 27.6866 82.3834 32.0991C83.5787 32.9186 84.6481 33.9271 85.5917 34.9987C86.724 36.1964 87.6676 37.5201 88.4225 38.97C92.0082 45.4626 91.8195 53.279 89.6178 60.1499C87.1015 68.0293 82.0689 75.1523 75.904 80.6364C69.6762 86.1835 61.9387 90.5329 53.7607 92.1088C46.5264 93.5586 38.6631 92.8652 32.5611 88.4528C31.3658 87.6333 30.2964 86.6247 29.3528 85.5531C28.2205 84.3555 27.2769 83.0317 26.522 81.5819C22.9992 75.0893 23.1879 67.2729 25.3897 60.402C27.9059 52.5226 32.9385 45.3996 39.0405 39.9155Z" fill="#FBE7F1"/>
<path id="Vector_12" fill-rule="evenodd" clip-rule="evenodd" d="M39.0358 39.9391C45.2642 34.3812 52.9395 30.0233 61.1811 28.4444C68.416 26.9917 76.2172 27.6865 82.3827 32.1075C83.578 32.9286 84.6475 33.9391 85.5912 34.9496C86.6607 36.1496 87.6673 37.4759 88.4223 38.9286C92.0083 45.4338 91.8196 53.2022 89.6176 60.1496C87.1011 68.0443 82.0681 75.118 75.9656 80.6128C69.7372 86.1707 62.0619 90.5285 53.8203 92.1075C46.5854 93.5601 38.7842 92.8654 32.6188 88.4443C31.4234 87.6233 30.3539 86.6128 29.4102 85.6022C28.3407 84.4022 27.3341 83.0759 26.5791 81.6233C22.9931 75.118 23.1819 67.2864 25.3838 60.4022C27.8374 52.5075 32.9333 45.4338 39.0358 39.9391Z" fill="#FBE5EF"/>
<path id="Vector_13" fill-rule="evenodd" clip-rule="evenodd" d="M39.0558 39.9509C45.2294 34.3876 52.9778 30.0887 61.2302 28.445C68.4746 26.991 76.286 27.6864 82.3965 32.1117C83.5934 32.9336 84.6644 33.8819 85.6093 34.9566C86.6802 36.1578 87.6881 37.4854 88.4441 38.9394C92.0348 45.451 91.7828 53.227 89.641 60.1179C87.1212 68.0203 82.0816 75.1009 75.971 80.6009C69.7975 86.1642 62.0491 90.4631 53.7967 92.1068C46.5523 93.5609 38.7409 92.8655 32.6303 88.4401C31.4334 87.6183 30.3625 86.67 29.4176 85.5952C28.3467 84.3941 27.3387 83.0665 26.5828 81.6124C22.9921 75.1641 23.1811 67.3881 25.3859 60.434C27.8427 52.5948 32.9453 45.451 39.0558 39.9509Z" fill="#FAE2EE"/>
<path id="Vector_14" fill-rule="evenodd" clip-rule="evenodd" d="M39.0529 39.9453C45.2443 34.3718 53.0151 30.065 61.2282 28.4183C68.4304 27.0249 76.2644 27.6583 82.3926 32.0918C83.5929 32.9151 84.6669 33.8651 85.6146 34.9418C86.6886 36.1452 87.6363 37.4752 88.4576 38.932C91.9955 45.3922 91.806 53.1824 89.6579 60.0859C87.1308 68.0028 82.0767 75.0964 75.9485 80.6065C69.7571 86.18 61.9863 90.4868 53.7732 92.1335C46.571 93.5269 38.7371 92.8936 32.6089 88.4601C31.4085 87.6367 30.3345 86.6867 29.3868 85.61C28.3128 84.4067 27.3651 83.0766 26.5438 81.6199C23.0059 75.0964 23.1954 67.3695 25.3435 60.4659C27.8706 52.549 32.9247 45.4555 39.0529 39.9453Z" fill="#FAE0EC"/>
<path id="Vector_15" fill-rule="evenodd" clip-rule="evenodd" d="M39.0719 39.9691C45.2685 34.3847 53.0459 30.0695 61.2659 28.4196C68.4743 27.0235 76.2517 27.6581 82.3851 32.1002C83.5232 32.9252 84.6614 33.8771 85.6098 34.9559C86.6848 36.1616 87.6332 37.4942 88.4552 38.8903C91.9962 45.3631 91.8065 53.1685 89.6566 60.0856C87.1274 67.9544 82.0689 75.1253 75.9355 80.5828C69.7389 86.1671 61.9615 90.4823 53.7415 92.1323C46.5331 93.5284 38.6925 92.8938 32.5591 88.4517C31.421 87.6267 30.2828 86.6748 29.3343 85.596C28.2594 84.3903 27.3109 83.0577 26.4889 81.6616C23.0112 75.1253 23.2009 67.3833 25.3508 60.4663C27.88 52.534 32.9385 45.4266 39.0719 39.9691Z" fill="#FADDEB"/>
<path id="Vector_16" fill-rule="evenodd" clip-rule="evenodd" d="M39.0326 39.9424C45.2414 34.342 52.9708 30.0143 61.207 28.4233C68.4295 27.0232 76.2222 27.6596 82.3677 32.0509C83.5081 32.8782 84.5851 33.8328 85.5988 34.9147C86.6759 36.1239 87.6262 37.4604 88.4498 38.8605C91.9977 45.352 91.8077 53.1162 89.6536 60.0532C87.1827 67.9447 82.0509 75.0726 75.9688 80.6094C69.76 86.2099 62.0306 90.5375 53.7944 92.1286C46.5719 93.5287 38.7792 92.8923 32.6337 88.501C31.4933 87.6737 30.4163 86.719 29.4026 85.6371C28.3255 84.4279 27.3752 83.0915 26.5516 81.6913C23.0037 75.1999 23.1938 67.4356 25.3478 60.4987C27.8821 52.6071 32.9505 45.4792 39.0326 39.9424Z" fill="#F7DBEA"/>
<path id="Vector_17" fill-rule="evenodd" clip-rule="evenodd" d="M39.0636 39.8174C45.2763 34.2744 53.0105 29.9912 61.2518 28.4165C68.4788 27.0307 76.2763 27.6606 82.3622 32.0068C83.5033 32.8257 84.581 33.7705 85.5953 34.8413C86.673 36.0381 87.624 37.3609 88.4481 38.7466C91.9982 45.1715 91.808 52.8561 89.6526 59.6589C87.1802 67.4695 82.0452 74.5243 75.9593 79.9413C69.7467 85.4843 62.0125 89.7676 53.7712 91.3423C46.5442 92.728 38.7466 92.0982 32.6607 87.7519C31.5196 86.9331 30.4419 85.9882 29.4276 84.9174C28.3499 83.7206 27.399 82.3979 26.5749 81.0121C22.9614 74.6503 23.2149 66.9656 25.3704 60.0998C27.8427 52.2892 32.9143 45.2345 39.0636 39.8174Z" fill="#F7D8E8"/>
<path id="Vector_18" fill-rule="evenodd" clip-rule="evenodd" d="M39.129 40.4731C45.3578 34.9932 53.1121 30.7587 61.3112 29.2018C68.4935 27.8319 76.3113 28.4546 82.4765 32.7514C83.6206 33.5609 84.7011 34.495 85.6545 35.5536C86.735 36.7368 87.6884 38.0445 88.4511 39.4145C92.0105 45.7663 91.8198 53.3012 89.5952 60.0266C87.1164 67.7483 82.0316 74.7228 75.8664 80.0782C69.6375 85.5582 61.8833 89.7927 53.6841 91.3495C46.5019 92.7195 38.6841 92.0968 32.5824 87.8C31.4383 86.9905 30.3578 86.0564 29.4044 84.9978C28.3239 83.8146 27.3705 82.5069 26.6078 81.1369C22.9849 74.8474 23.1756 67.2502 25.4001 60.5248C27.879 52.803 32.9637 45.8285 39.129 40.4731Z" fill="#F6D6E7"/>
<path id="Vector_19" fill-rule="evenodd" clip-rule="evenodd" d="M39.7074 40.4848C45.8746 35.0618 53.5521 30.8232 61.6701 29.2025C68.7813 27.8311 76.5217 28.4545 82.563 32.7555C83.6958 33.5658 84.7656 34.5008 85.7096 35.5605C86.7794 36.7448 87.7233 37.9915 88.4785 39.4252C92.0026 45.7208 91.8138 53.3255 89.6112 60.0575C87.2199 67.7869 82.1854 74.7059 76.1441 80.0665C69.977 85.4895 62.2994 89.7282 54.1814 91.3489C47.0703 92.7202 39.3299 92.0969 33.2885 87.7959C32.1558 86.9855 31.086 86.0505 30.142 84.9909C29.0722 83.8065 28.1283 82.5599 27.3731 81.1262C23.7861 74.8305 23.9748 67.2882 26.1774 60.5562C28.6317 52.8268 33.6661 45.8455 39.7074 40.4848Z" fill="#F7D6E7"/>
<path id="Vector_20" fill-rule="evenodd" clip-rule="evenodd" d="M39.7264 40.4966C45.8988 35.0682 53.5199 30.8254 61.7079 29.2031C68.8251 27.8304 76.5092 28.4544 82.5556 32.7596C83.6894 33.5708 84.7601 34.5067 85.7048 35.5674C86.7756 36.7529 87.7203 38.0008 88.4762 39.4359C92.0033 45.7377 91.8143 53.3499 89.6099 60.0261C87.1535 67.7007 82.1147 74.6889 76.0683 80.0548C69.8958 85.4831 62.2747 89.726 54.0868 91.3482C46.9696 92.7209 39.2855 92.097 33.239 87.7918C32.1053 86.9806 31.0346 86.0447 30.0898 84.984C29.0191 83.7985 28.0743 82.5506 27.3185 81.1155C23.7914 74.8137 23.9803 67.2015 26.1848 60.5253C28.6412 52.7883 33.6799 45.8625 39.7264 40.4966Z" fill="#F6D3E5"/>
<path id="Vector_21" fill-rule="evenodd" clip-rule="evenodd" d="M39.7102 40.515C45.8952 35.0689 53.5318 30.8121 61.6733 29.2471C68.805 27.8073 76.5047 28.4333 82.5634 32.7527C83.6995 33.5665 84.7724 34.5055 85.7191 35.5071C86.792 36.6965 87.7387 37.9485 88.496 39.3257C92.0303 45.6482 91.7779 53.2228 89.632 59.921C87.1707 67.746 82.1217 74.6945 76.0629 80.0781C69.8779 85.5243 62.2413 89.7811 54.0998 91.3461C46.9681 92.7233 39.2684 92.0973 33.2096 87.7779C32.0736 86.9641 31.0007 86.0251 30.054 85.0235C28.9811 83.8341 28.0344 82.5821 27.2771 81.2049C23.8059 74.8824 23.9952 67.3078 26.141 60.547C28.6024 52.8472 33.6514 45.8986 39.7102 40.515Z" fill="#F5D1E3"/>
<path id="Vector_22" fill-rule="evenodd" clip-rule="evenodd" d="M39.7245 40.4929C45.8522 35.0377 53.5592 30.7739 61.7084 29.2063C68.7837 27.8269 76.4907 28.4539 82.5553 32.7804C83.6924 33.5956 84.7663 34.5361 85.7139 35.5393C86.7878 36.7307 87.7354 37.9848 88.4934 39.3642C92.0311 45.6972 91.7784 53.2843 89.6305 59.9935C87.1668 67.706 82.1131 74.7287 76.0485 80.0585C69.9208 85.5136 62.2138 89.7775 54.0646 91.345C46.9893 92.7245 39.2823 92.0975 33.2178 87.771C32.0807 86.9558 31.0068 86.0153 30.0592 85.012C28.9853 83.8207 28.0377 82.5666 27.2796 81.1871C23.8051 74.9168 23.9947 67.3298 26.1425 60.6205C28.6062 52.8454 33.66 45.8853 39.7245 40.4929Z" fill="#F5CFE2"/>
<path id="Vector_23" fill-rule="evenodd" clip-rule="evenodd" d="M39.5339 40.5176C45.6074 35.052 53.2461 30.78 61.2606 29.2094C68.2732 27.8273 75.912 28.4555 81.8602 32.7275C82.9872 33.5442 84.0516 34.4866 84.9908 35.4917C86.0552 36.6854 86.9944 37.9419 87.7458 39.324C91.1895 45.6692 91.0017 53.208 88.8728 59.9302C86.4309 67.6575 81.4219 74.6309 75.4111 80.0337C69.3376 85.4994 61.6989 89.7714 53.6844 91.342C46.6718 92.7241 39.033 92.0959 33.0848 87.8239C31.9578 87.0072 30.8934 86.0648 29.9542 85.0596C28.8897 83.866 27.9506 82.6095 27.1992 81.2274C23.8181 74.8822 24.0059 67.3433 26.1348 60.6212C28.5767 52.8939 33.5857 45.9205 39.5339 40.5176Z" fill="#F4CCE1"/>
<path id="Vector_24" fill-rule="evenodd" clip-rule="evenodd" d="M39.5435 40.5295C45.6233 35.0584 53.2073 30.8451 61.2928 29.21C68.3128 27.8265 75.9595 28.4554 81.8512 32.7316C82.9795 33.5492 84.045 34.4925 84.9852 35.4986C86.0507 36.6935 86.9909 37.9512 87.743 39.3347C91.1903 45.6233 91.0023 53.2325 88.8712 59.8984C86.4268 67.6333 81.4125 74.6137 75.4581 80.0219C69.3783 85.4929 61.7942 89.7063 53.7088 91.3413C46.6888 92.7248 39.0421 92.096 33.1503 87.8197C32.0221 87.0022 30.9566 86.0589 30.0164 85.0527C28.9509 83.8579 28.0107 82.6002 27.2586 81.2167C23.8113 74.9281 23.9993 67.3189 26.1304 60.653C28.5748 52.8551 33.5264 45.8748 39.5435 40.5295Z" fill="#F4CADF"/>
<path id="Vector_25" fill-rule="evenodd" clip-rule="evenodd" d="M39.5577 40.5414C45.6433 35.0649 53.2346 30.8473 61.3278 29.2107C68.3544 27.8258 75.9457 28.4553 81.9058 32.7358C83.0351 33.5541 84.1017 34.4983 84.98 35.5055C86.0465 36.6386 86.9249 37.9605 87.7405 39.3454C91.191 45.6402 91.0028 53.194 88.8697 59.9295C86.423 67.6721 81.4667 74.6594 75.4438 80.01C69.3583 85.4865 61.767 89.704 53.6738 91.3407C46.6471 92.7255 39.0558 92.0961 33.0957 87.8156C31.9665 86.9972 30.8999 86.053 30.0216 85.0458C28.955 83.9128 28.0767 82.5909 27.2611 81.206C23.8105 74.9112 23.9987 67.3574 26.1318 60.6219C28.5786 52.9422 33.5349 45.9549 39.5577 40.5414Z" fill="#F3C7DE"/>
<path id="Vector_26" fill-rule="evenodd" clip-rule="evenodd" d="M39.6007 40.5022C45.7037 35.0148 53.3167 30.7888 61.3702 29.212C68.3541 27.8244 76.0301 28.4551 81.9444 32.7441C83.0769 33.5641 84.0836 34.5102 85.0273 35.5193C86.0969 36.6547 86.9778 37.9792 87.7328 39.3668C91.1933 45.6742 91.0045 53.243 88.8653 59.9288C86.4115 67.6868 81.441 74.6249 75.4009 80.0492C69.2979 85.5366 61.6848 89.7625 53.6313 91.3394C46.6475 92.727 38.9715 92.0963 33.0572 87.8073C31.9247 86.9873 30.918 86.0412 29.9742 85.032C28.9046 83.8967 28.0238 82.5722 27.2688 81.1845C23.8083 74.8772 23.997 67.3084 26.1363 60.6226C28.59 52.8646 33.6235 45.8634 39.6007 40.5022Z" fill="#F3C5DC"/>
<path id="Vector_27" fill-rule="evenodd" clip-rule="evenodd" d="M39.615 40.526C45.7239 35.0276 53.3442 30.7933 61.4054 29.2133C68.396 27.8229 76.0163 28.4549 81.9363 32.7525C83.0699 33.5741 84.0775 34.4588 85.0222 35.5332C86.0928 36.6708 86.9745 37.998 87.7302 39.3252C91.194 45.6451 91.0051 53.1658 88.8638 59.8649C86.4077 67.6384 81.4324 74.5903 75.3865 80.0254C69.2777 85.5237 61.6573 89.7581 53.5961 91.3381C46.6056 92.7284 38.9852 92.0965 33.0653 87.7989C31.9317 86.9773 30.9241 86.0925 29.9794 85.0181C28.9088 83.8806 28.0271 82.5534 27.2713 81.2262C23.8075 74.9063 23.9965 67.3856 26.1377 60.6865C28.5939 52.913 33.5691 45.9611 39.615 40.526Z" fill="#F3C3DB"/>
<path id="Vector_28" fill-rule="evenodd" clip-rule="evenodd" d="M39.5865 40.5499C45.7095 35.0406 53.2843 30.7978 61.364 29.2146C68.3707 27.8215 76.0086 28.4547 81.9422 32.7608C83.0784 33.5841 84.0884 34.4706 85.0352 35.5472C86.1083 36.687 86.992 38.0168 87.7495 39.3467C91.2213 45.6159 90.9688 53.2149 88.8857 59.9274C86.487 67.6531 81.5003 74.6189 75.4405 80.0015C69.3175 85.5108 61.7428 89.7536 53.663 91.3367C46.6563 92.7299 39.0184 92.0966 33.0849 87.7905C31.9486 86.9673 30.9387 86.0807 29.9918 85.0042C28.9187 83.8644 28.035 82.5345 27.2775 81.2047C23.8058 74.9355 23.9951 67.3998 26.1413 60.6873C28.6031 52.9616 33.5898 45.9325 39.5865 40.5499Z" fill="#F1C0DA"/>
<path id="Vector_29" fill-rule="evenodd" clip-rule="evenodd" d="M39.6009 40.5695C45.7298 35.1146 53.3118 30.8014 61.3993 29.2157C68.4127 27.8203 75.9948 28.4546 81.934 32.7677C83.0714 33.5923 84.0823 34.4803 85.03 35.4952C86.1042 36.6369 86.9887 37.9054 87.7469 39.3009C91.222 45.5803 90.9693 53.1283 88.8843 59.8518C86.4201 67.5901 81.4286 74.6307 75.4261 80.0221C69.2973 85.477 61.7152 89.7901 53.6277 91.3759C46.6143 92.7079 39.0323 92.0736 33.093 87.8239C31.9557 86.9993 30.9448 86.1113 29.997 85.0964C28.9229 83.9547 28.0383 82.6861 27.2801 81.2907C23.805 74.9478 23.9946 67.3998 26.1428 60.7398C28.607 52.9381 33.5985 45.9609 39.6009 40.5695Z" fill="#F1BED8"/>
<path id="Vector_30" fill-rule="evenodd" clip-rule="evenodd" d="M39.6345 40.5355C45.7113 35.068 53.3072 30.8085 61.4095 29.2191C68.3724 27.8204 76.0317 28.4562 81.9185 32.7157C83.0579 33.5422 84.0707 34.4323 85.0202 35.4495C86.0963 36.5938 86.9825 37.8653 87.7421 39.264C91.2235 45.558 90.9703 53.1234 88.8815 59.7989C86.4128 67.5551 81.4121 74.5484 75.3987 79.9523C69.3219 85.4198 61.6627 89.6793 53.5604 91.3323C46.5975 92.7309 38.9382 92.0952 33.0514 87.8356C31.912 87.0092 30.8992 86.1191 29.9497 85.1019C28.8736 83.9575 27.9874 82.686 27.2278 81.2874C23.8097 74.9934 23.9996 67.4279 26.1517 60.7525C28.6204 52.9963 33.6211 45.9394 39.6345 40.5355Z" fill="#EFBAD6"/>
<path id="Vector_31" fill-rule="evenodd" clip-rule="evenodd" d="M39.5906 40.5475C45.6752 35.0746 53.3443 30.8107 61.3937 29.2197C68.3656 27.8197 75.9713 28.4561 81.9292 32.7199C83.07 33.5472 84.0841 34.4382 85.0348 35.4564C86.1123 36.6019 86.9997 37.8747 87.7602 39.2747C91.1828 45.575 90.9927 53.1481 88.9011 59.8302C86.4292 67.5942 81.4221 74.5945 75.4009 80.0038C69.3163 85.4768 61.6472 89.7406 53.5978 91.3316C46.6259 92.7317 39.0201 92.0953 33.0623 87.8315C31.9215 87.0042 30.9074 86.1132 29.9566 85.095C28.8792 83.9495 27.9918 82.6767 27.2312 81.2766C23.8087 74.9763 23.9988 67.4033 26.1538 60.7212C28.5623 52.9572 33.5694 45.9569 39.5906 40.5475Z" fill="#EFBAD6"/>
<path id="Vector_32" fill-rule="evenodd" clip-rule="evenodd" d="M39.6082 40.5596C45.6983 35.0811 53.3109 30.813 61.431 29.2204C68.4092 27.8189 76.0218 28.456 81.9215 32.7241C83.0634 33.5522 84.0784 34.4441 85.03 35.4633C86.1084 36.61 86.9966 37.884 87.7578 39.2855C91.1835 45.5921 90.9932 53.1091 88.8997 59.7979C86.4256 67.5697 81.414 74.577 75.4508 79.9918C69.3607 85.4703 61.7482 89.7384 53.6281 91.331C46.6499 92.7324 39.0373 92.0954 33.1375 87.8273C31.9956 86.9991 30.9806 86.1073 30.029 85.0881C28.9506 83.9414 28.0624 82.6673 27.3012 81.2659C23.8121 74.9593 24.0024 67.3786 26.0959 60.6898C28.57 52.918 33.5816 45.9743 39.6082 40.5596Z" fill="#EDB5D3"/>
<path id="Vector_33" fill-rule="evenodd" clip-rule="evenodd" d="M40.2431 40.4453C46.2809 35.019 53.8281 30.7915 61.8156 29.2141C68.7339 27.8259 76.2183 28.4569 82.0674 32.6844C83.1995 33.5046 84.2058 34.388 85.0863 35.3976C86.1555 36.5333 87.036 37.7952 87.7907 39.1203C91.187 45.3038 90.9983 52.8123 88.8599 59.3744C86.4071 67.0722 81.5014 74.0128 75.5265 79.313C69.4887 84.7393 61.9414 88.9668 53.9539 90.5442C47.0356 91.9324 39.5513 91.3014 33.7021 87.0739C32.57 86.2536 31.5637 85.3703 30.6832 84.3607C29.614 83.225 28.7335 81.963 27.9788 80.638C24.5825 74.4545 24.8341 67.0091 26.9096 60.447C29.3625 52.7492 34.3311 45.8085 40.2431 40.4453Z" fill="#EEB5D3"/>
<path id="Vector_34" fill-rule="evenodd" clip-rule="evenodd" d="M40.2284 41.088C46.2756 35.7303 53.8345 31.5563 61.8343 29.9989C68.7004 28.6283 76.2593 29.2513 82.1175 33.4253C83.2513 34.2352 84.2592 35.1073 85.141 36.1041C86.1489 37.2255 87.0938 38.4714 87.7867 39.7797C91.1882 45.8849 90.9992 53.2361 88.8575 59.7774C86.4639 67.3155 81.4876 74.1683 75.5664 79.4636C69.5193 84.8213 61.9603 88.9953 53.9605 90.5527C47.0944 91.9233 39.5355 91.3003 33.6773 87.1263C32.5435 86.3165 31.5356 85.4443 30.6538 84.4475C29.6459 83.3261 28.701 82.0802 28.0081 80.7719C24.6066 74.6667 24.7956 67.3155 26.9373 60.7742C29.331 53.1738 34.2443 46.3833 40.2284 41.088Z" fill="#EDB3D1"/>
<path id="Vector_35" fill-rule="evenodd" clip-rule="evenodd" d="M40.1103 41.0439C46.0941 35.6652 53.574 31.4748 61.4278 29.9738C68.2219 28.6604 75.6394 29.2233 81.4363 33.4137C82.4959 34.2267 83.5555 35.1023 84.4282 36.103C85.4255 37.2288 86.3605 38.4796 87.0461 39.793C90.412 45.9222 90.1627 53.3023 88.1058 59.8067C85.6748 67.3744 80.813 74.2541 74.8914 79.5077C68.9076 84.8864 61.4278 89.0768 53.574 90.5778C46.7798 91.8912 39.3623 91.3283 33.5655 87.138C32.5058 86.3249 31.4462 85.4493 30.5735 84.4486C29.5762 83.3228 28.6412 82.072 27.9556 80.7586C24.5897 74.6294 24.839 67.2493 26.896 60.7449C29.3269 53.1772 34.2511 46.2975 40.1103 41.0439Z" fill="#EEB0D0"/>
<path id="Vector_36" fill-rule="evenodd" clip-rule="evenodd" d="M40.0283 41.0676C46.0296 35.678 53.4687 31.5418 61.408 29.9751C68.222 28.659 75.6611 29.223 81.4124 33.4219C82.4751 34.1739 83.5378 35.114 84.413 36.1167C85.4132 37.2447 86.351 38.4981 87.0386 39.8142C90.4144 45.9558 90.1643 53.2882 88.1013 59.8058C85.7258 67.3888 80.8497 74.2198 74.9734 79.484C68.9721 84.8736 61.533 89.0098 53.5938 90.5765C46.7798 91.8926 39.3406 91.3286 33.5893 87.1297C32.5266 86.3777 31.4639 85.4376 30.5887 84.4349C29.5885 83.3069 28.6508 82.0535 27.9631 80.7374C24.5874 74.5958 24.8374 67.2635 26.9004 60.7458C29.2134 53.2255 34.152 46.3945 40.0283 41.0676Z" fill="#EBAECF"/>
<path id="Vector_37" fill-rule="evenodd" clip-rule="evenodd" d="M40.2579 41.0806C46.3274 35.6859 53.8511 31.5457 61.8805 29.9775C68.7719 28.6602 76.2324 29.2247 82.1122 33.3649C83.187 34.1176 84.1986 35.0586 85.1469 35.9995C86.1585 37.1286 87.0437 38.3832 87.8024 39.7006C91.2165 45.7853 90.9636 53.1874 88.8772 59.7112C86.4746 67.3015 81.48 74.139 75.5369 79.471C69.4674 84.8658 61.9437 89.0059 53.9143 90.5741C47.0229 91.8914 39.5624 91.3269 33.6826 87.1867C32.6078 86.434 31.5962 85.493 30.6479 84.5521C29.6363 83.423 28.7511 82.1684 27.9925 80.8511C24.5784 74.7663 24.8313 67.3642 26.9176 60.8404C29.3202 53.1874 34.2516 46.3499 40.2579 41.0806Z" fill="#EAACCE"/>
<path id="Vector_38" fill-rule="evenodd" clip-rule="evenodd" d="M40.1051 41.1044C46.1123 35.7616 53.5587 31.5502 61.4431 29.9788C68.2011 28.6588 75.6475 29.2245 81.4044 33.373C82.4681 34.1273 83.4693 35.0702 84.408 36.013C85.4091 37.1445 86.2852 38.3387 87.0361 39.7216C90.4151 45.8187 90.1648 53.2358 88.0999 59.7101C85.722 67.3158 80.7786 74.1672 74.8966 79.4472C68.8894 84.79 61.4431 89.0014 53.5587 90.5728C46.8006 91.8928 39.3542 91.3271 33.5973 87.1786C32.5336 86.4243 31.5324 85.4814 30.5938 84.5386C29.5926 83.4072 28.7165 82.2129 27.9656 80.83C24.5866 74.7329 24.8369 67.3158 26.9019 60.8415C29.3423 53.2358 34.2231 46.3844 40.1051 41.1044Z" fill="#EAAACC"/>
<path id="Vector_39" fill-rule="evenodd" clip-rule="evenodd" d="M40.1078 41.1284C46.0622 35.7747 53.5208 31.5547 61.4809 29.9801C68.2501 28.6574 75.646 29.2242 81.4124 33.3812C82.4779 34.1371 83.4807 35.0818 84.4209 36.0266C85.4237 37.1603 86.3012 38.3571 87.0533 39.6797C90.3753 45.7893 90.1872 53.1585 88.1189 59.646C85.7371 67.2671 80.7856 74.1325 74.8939 79.4232C68.9395 84.7769 61.4809 88.9969 53.5208 90.5716C46.7516 91.8942 39.3557 91.3274 33.5894 87.1704C32.5238 86.4146 31.521 85.4698 30.5808 84.525C29.578 83.3913 28.7005 82.1946 27.9484 80.8719C24.6265 74.7623 24.8145 67.3931 26.8828 60.9057C29.3273 53.2845 34.2161 46.4191 40.1078 41.1284Z" fill="#EAA7CB"/>
<path id="Vector_40" fill-rule="evenodd" clip-rule="evenodd" d="M40.0882 41.0893C46.06 35.7247 53.5406 31.4961 61.4611 29.9814C68.2502 28.656 75.6679 29.224 81.4511 33.3895C82.5198 34.1468 83.5256 35.0304 84.4056 36.0402C85.4114 37.1763 86.2915 38.3754 87.0458 39.7008C90.3775 45.8228 90.1889 53.2071 88.1145 59.6447C85.7257 67.2814 80.8225 74.1608 74.9135 79.4623C68.9417 84.8269 61.4611 89.0555 53.5406 90.5703C46.7515 91.8956 39.3339 91.3276 33.5506 87.1621C32.4819 86.4048 31.4762 85.5212 30.5961 84.5114C29.5903 83.3753 28.7102 82.1762 27.9559 80.8508C24.6242 74.7288 24.8128 67.3445 26.8873 60.9069C29.276 53.2702 34.2421 46.3909 40.0882 41.0893Z" fill="#EAA4C9"/>
<path id="Vector_41" fill-rule="evenodd" clip-rule="evenodd" d="M40.1084 41.1013C46.0885 35.7312 53.5793 31.5615 61.5107 29.982C68.3091 28.6553 75.674 29.2239 81.4652 33.3936C82.5353 34.1517 83.5425 35.0362 84.4238 36.0471C85.431 37.1843 86.3122 38.3847 87.0676 39.7114C90.4038 45.8397 90.1521 53.1683 88.1377 59.6756C85.7457 67.3201 80.8358 74.1434 74.9186 79.4503C68.9386 84.8204 61.4478 88.9902 53.5163 90.5696C46.7179 91.8963 39.353 91.3277 33.5618 87.158C32.4917 86.3999 31.4845 85.5154 30.6033 84.5045C29.5961 83.3673 28.7148 82.167 27.9594 80.8402C24.6232 74.712 24.812 67.3201 26.8893 60.876C29.2814 53.2315 34.1913 46.3451 40.1084 41.1013Z" fill="#E9A2C8"/>
<path id="Vector_42" fill-rule="evenodd" clip-rule="evenodd" d="M40.1033 41.1133C46.0916 35.7377 53.5927 31.5637 61.5351 29.9827C68.3428 28.6546 75.7179 29.2237 81.454 33.3977C82.5256 34.1567 83.5342 35.0421 84.4166 36.0539C85.4252 37.1923 86.3077 38.3939 87.0641 39.722C90.4049 45.7933 90.1528 53.1927 88.1357 59.6434C85.7404 67.2325 80.8237 74.1259 74.8984 79.4383C68.9101 84.8139 61.409 88.9879 53.4666 90.569C46.6589 91.8971 39.2839 91.3279 33.5477 87.1539C32.4761 86.395 31.4676 85.5096 30.5851 84.4977C29.5765 83.3593 28.694 82.1577 27.9376 80.8296C24.5968 74.7583 24.8489 67.359 26.866 60.9082C29.3244 53.3191 34.2411 46.4257 40.1033 41.1133Z" fill="#E8A0C6"/>
<path id="Vector_43" fill-rule="evenodd" clip-rule="evenodd" d="M40.1323 41.1507C46.1323 35.7589 53.585 31.5723 61.543 29.9864C68.301 28.6543 75.7537 29.2252 81.5011 33.3484C82.5748 34.1096 83.5853 34.9977 84.4696 36.0126C85.4801 37.1544 86.3643 38.3596 87.0591 39.6917C90.4065 45.7813 90.1538 53.1396 88.1328 59.6098C85.7327 67.2218 80.8064 74.136 74.8695 79.4009C68.8694 84.7928 61.4167 88.9794 53.4587 90.5652C46.7007 91.8973 39.248 91.3264 33.5006 87.2032C32.4269 86.442 31.4164 85.554 30.5322 84.539C29.5216 83.3972 28.6374 82.192 27.9427 80.8599C24.5953 74.7703 24.8479 67.4121 26.869 60.9419C29.3321 53.3299 34.2585 46.4156 40.1323 41.1507Z" fill="#EAA0C6"/>
<path id="Vector_44" fill-rule="evenodd" clip-rule="evenodd" d="M40.142 41.1507C46.1486 35.7589 53.6093 31.5723 61.5759 29.9864C68.3412 28.6543 75.7387 29.2252 81.4923 33.3484C82.5672 34.1096 83.5788 34.9977 84.464 36.0126C85.4756 37.1544 86.3608 38.3596 87.0563 39.6917C90.4073 45.7813 90.1544 53.1396 88.1312 59.6098C85.7285 67.2218 80.7968 74.0725 74.9168 79.4009C68.9102 84.7928 61.4495 88.9794 53.4829 90.5652C46.7176 91.8973 39.3201 91.3264 33.5665 87.2032C32.4916 86.442 31.48 85.554 30.5948 84.539C29.5832 83.3972 28.698 82.192 28.0025 80.8599C24.5883 74.7703 24.8412 67.4121 26.8644 60.9419C29.267 53.3299 34.1987 46.4791 40.142 41.1507Z" fill="#E79BC4"/>
<path id="Vector_45" fill-rule="evenodd" clip-rule="evenodd" d="M40.1271 41.1356C46.1508 35.7216 53.633 31.5177 61.559 29.9891C68.3436 28.6515 75.7623 29.2247 81.4691 33.3649C82.547 34.1292 83.5615 35.0209 84.4492 35.9764C85.4637 37.0592 86.3515 38.3331 87.0489 39.6069C90.4096 45.7216 90.1559 53.0465 88.1269 59.5433C85.7174 67.1867 80.7716 74.0657 74.8746 79.416C68.8509 84.83 61.3687 89.0339 53.4428 90.5625C46.6581 91.9001 39.2394 91.3269 33.5327 87.1867C32.4547 86.4224 31.4402 85.5307 30.5525 84.5753C29.538 83.4925 28.6503 82.2186 27.9528 80.9447C24.5922 74.83 24.8458 67.4414 26.8748 61.0083C29.2843 53.365 34.2302 46.486 40.1271 41.1356Z" fill="#E79BC4"/>
<path id="Vector_46" fill-rule="evenodd" clip-rule="evenodd" d="M40.1271 41.0085C46.1508 35.6528 53.633 31.4943 61.559 29.9821C68.3436 28.659 75.6989 29.226 81.469 33.3215C82.547 34.0776 83.5615 34.9597 84.4492 35.9049C85.4637 36.976 86.3515 38.2361 87.0489 39.4963C90.4096 45.482 90.1559 52.7909 88.1269 59.1547C85.7174 66.7156 80.7716 73.5204 74.8746 78.7501C68.8509 84.1057 61.3687 88.2642 53.4428 89.7764C46.6581 91.0996 39.3028 90.5325 33.5327 86.437C32.4547 85.6809 31.4402 84.7988 30.5525 83.8537C29.538 82.7826 28.6503 81.5224 27.9528 80.2622C24.5922 74.2765 24.8458 66.9676 26.8748 60.6039C29.2843 53.0429 34.2302 46.2381 40.1271 41.0085Z" fill="#E799C2"/>
<path id="Vector_47" fill-rule="evenodd" clip-rule="evenodd" d="M40.1445 41.0085C46.1207 35.6528 53.6227 31.5573 61.6333 29.9821C68.3724 28.659 75.8109 29.226 81.5327 33.3215C82.6135 34.0776 83.5672 34.9597 84.4572 35.9049C85.4745 36.976 86.3645 38.1731 87.0639 39.4963C90.3699 45.482 90.1791 52.7279 88.1447 59.1547C85.7288 66.7156 80.7698 73.5204 74.8572 78.7501C68.881 84.1057 61.379 88.2012 53.3684 89.7764C46.6293 91.0996 39.1909 90.5325 33.469 86.437C32.3882 85.6809 31.4345 84.7988 30.5445 83.8537C29.5272 82.7826 28.6372 81.5854 27.9378 80.2622C24.6319 74.2765 24.8226 67.0306 26.857 60.6039C29.3365 53.1059 34.2319 46.3011 40.1445 41.0085Z" fill="#E696C1"/>
<path id="Vector_48" fill-rule="evenodd" clip-rule="evenodd" d="M40.7784 41.6739C46.6944 36.4392 54.1208 32.3262 61.9878 30.7683C68.6589 29.4596 75.9595 30.0204 81.6237 34.0711C82.6936 34.8189 83.6377 35.6914 84.5188 36.6261C85.5257 37.6855 86.3439 38.8696 87.0991 40.1783C90.3718 46.0985 90.183 53.265 88.1061 59.5592C85.7145 67.0373 80.8685 73.7053 75.0155 78.8777C69.0995 84.1124 61.6731 88.2254 53.8061 89.7834C47.1349 91.092 39.8344 90.5312 34.1702 86.4805C33.1003 85.7327 32.1562 84.8603 31.2751 83.9255C30.2682 82.8661 29.45 81.682 28.6948 80.3734C25.4221 74.4532 25.6109 67.2866 27.6878 60.9925C30.0793 53.5766 34.9254 46.8463 40.7784 41.6739Z" fill="#E594BF"/>
<path id="Vector_49" fill-rule="evenodd" clip-rule="evenodd" d="M40.7648 41.6858C46.6855 36.4457 54.1178 32.3285 61.991 30.7689C68.6675 29.4589 75.9739 30.0203 81.6426 34.0752C82.7133 34.8238 83.6581 35.6971 84.5399 36.6329C85.5477 37.6934 86.3665 38.8786 87.1224 40.1887C90.3976 46.115 90.1457 53.289 88.1301 59.5272C85.7367 66.9507 80.8868 73.688 75.0291 78.8658C69.1084 84.1059 61.6761 88.2232 53.8029 89.7827C47.1264 91.0927 39.82 90.5313 34.1513 86.4764C33.0805 85.7279 32.1357 84.8545 31.2539 83.9188C30.2462 82.8583 29.4274 81.673 28.6715 80.363C25.3963 74.4366 25.6482 67.2626 27.6637 61.0244C29.9942 53.5385 34.9071 46.8636 40.7648 41.6858Z" fill="#E492BE"/>
<path id="Vector_50" fill-rule="evenodd" clip-rule="evenodd" d="M40.7938 41.6484C46.7263 36.3977 54.1734 32.2722 61.9992 30.772C68.6889 29.4594 75.9467 30.0219 81.6267 34.0224C82.6996 34.7725 83.6463 35.6476 84.5298 36.5853C85.5396 37.6479 86.3601 38.8356 87.1174 40.1482C90.3992 46.0865 90.1467 53.2124 88.1272 59.5257C85.7289 66.9642 80.8694 73.715 75 78.9032C69.0676 84.1539 61.6205 88.2794 53.7947 89.7796C47.1049 91.0923 39.8472 90.5297 34.1672 86.5292C33.0943 85.7791 32.1476 84.904 31.264 83.9664C30.2543 82.9037 29.4338 81.7161 28.6765 80.4034C25.3947 74.4651 25.6472 67.3392 27.6667 61.0259C30.0649 53.5875 34.9245 46.8366 40.7938 41.6484Z" fill="#E38FBD"/>
<path id="Vector_51" fill-rule="evenodd" clip-rule="evenodd" d="M40.6399 41.6843C46.5098 36.4173 53.816 32.2789 61.6219 30.774C68.1787 29.4572 75.4225 30.0216 80.9803 34.0346C82.0418 34.787 82.9785 35.6648 83.8528 36.6054C84.8519 37.6713 85.6637 38.8627 86.3507 40.1168C89.5979 46.0109 89.3481 53.2217 87.3498 59.492C84.9768 66.9537 80.1685 73.6629 74.3609 78.8673C68.491 84.1343 61.1847 88.2727 53.3789 89.7776C46.822 91.0944 39.5783 90.5301 34.0205 86.5171C32.9589 85.7646 32.0222 84.8868 31.148 83.9462C30.1488 82.8803 29.337 81.6889 28.6501 80.4349C25.4029 74.5408 25.6527 67.3299 27.651 61.0596C30.024 53.5979 34.8323 46.8887 40.6399 41.6843Z" fill="#E28DBB"/>
<path id="Vector_52" fill-rule="evenodd" clip-rule="evenodd" d="M40.6062 41.6964C46.4879 36.4238 53.8087 32.2811 61.5675 30.7747C68.1375 29.4565 75.3332 30.0214 80.9646 34.0386C82.0283 34.7918 82.9669 35.6706 83.8429 36.6121C84.844 37.6792 85.6574 38.8718 86.3457 40.1272C89.5994 46.0274 89.3491 53.183 87.3469 59.4598C84.9691 66.9293 80.1512 73.6455 74.3946 78.8553C68.5129 84.1278 61.1921 88.2705 53.4333 89.777C46.8633 91.0951 39.6676 90.5302 34.0362 86.513C32.9725 85.7598 32.0339 84.881 31.1579 83.9395C30.1568 82.8724 29.3434 81.6798 28.6551 80.4245C25.4014 74.5242 25.6517 67.3686 27.6539 61.0918C30.0316 53.6224 34.8496 46.8434 40.6062 41.6964Z" fill="#E38ABA"/>
<path id="Vector_53" fill-rule="evenodd" clip-rule="evenodd" d="M40.6206 41.6964C46.5082 36.4238 53.8363 32.3439 61.6029 30.7747C68.1794 29.4565 75.3823 30.0214 80.9567 34.0386C82.0215 34.7918 82.961 35.6078 83.8379 36.6121C84.84 37.6792 85.6543 38.8718 86.3432 40.1272C89.6002 46.0274 89.3497 53.183 87.3454 59.4598C84.9653 66.9293 80.1425 73.6455 74.3802 78.8553C68.4926 84.1278 61.1645 88.2078 53.3979 89.777C46.8213 91.0951 39.6185 90.5302 34.0441 86.513C32.9793 85.7598 32.0398 84.9438 31.1629 83.9395C30.1608 82.8724 29.3465 81.6798 28.6576 80.4245C25.4006 74.4615 25.6511 67.3686 27.6554 61.0918C30.0355 53.6224 34.8583 46.9061 40.6206 41.6964Z" fill="#E288B8"/>
<path id="Vector_54" fill-rule="evenodd" clip-rule="evenodd" d="M40.6351 41.7001C46.5285 36.4075 53.864 32.312 61.6384 30.7368C68.2215 29.4767 75.3689 30.0438 80.9488 34.0132C82.0147 34.7693 82.9551 35.5884 83.8329 36.5335C84.836 37.6046 85.6511 38.8018 86.3407 40.0619C89.601 45.9846 89.3502 53.1044 87.3439 59.4051C84.9614 66.9029 80.1338 73.6447 74.3657 78.8113C68.4723 84.1039 61.1368 88.1994 53.3624 89.7745C46.7793 91.0977 39.6319 90.5306 34.0519 86.4982C32.9861 85.7421 32.0457 84.923 31.1679 83.9779C30.1648 82.9068 29.3497 81.7096 28.66 80.4495C25.3998 74.5268 25.6506 67.407 27.6569 61.1063C30.0394 53.6714 34.867 46.8667 40.6351 41.7001Z" fill="#E286B7"/>
<path id="Vector_55" fill-rule="evenodd" clip-rule="evenodd" d="M40.628 41.6938C46.5377 36.3936 53.8305 32.2923 61.6263 30.778C68.1647 29.453 75.3947 30.0208 80.99 34.059C81.9959 34.8162 83.0018 35.6365 83.8191 36.5829C84.7622 37.6556 85.6423 38.8544 86.3339 40.1163C89.6031 46.0475 89.3516 53.1774 87.3398 59.424C84.9508 66.8694 80.1098 73.6208 74.3259 78.8579C68.4162 84.158 61.1234 88.2593 53.3276 89.7736C46.7892 91.0987 39.5592 90.5308 33.9639 86.4926C32.958 85.7354 31.9521 84.9152 31.1348 83.9687C30.1917 82.8961 29.3116 81.6972 28.62 80.4353C25.4137 74.5042 25.6651 67.3742 27.6141 61.0645C30.0031 53.6191 34.844 46.8677 40.628 41.6938Z" fill="#E286B7"/>
<path id="Vector_56" fill-rule="evenodd" clip-rule="evenodd" d="M40.6534 41.7008C46.5105 36.3846 53.8791 32.2708 61.6885 30.7519C68.2384 29.4861 75.4181 29.9925 81.0232 34.0429C82.0309 34.8023 83.0386 35.6251 83.8573 36.5744C84.802 37.6503 85.6837 38.8528 86.3765 40.1186C89.5885 46.0043 89.3365 53.1559 87.3842 59.4847C84.9909 66.8894 80.1415 73.6612 74.3474 78.8509C68.4903 84.1671 61.1217 88.2808 53.3123 89.7997C46.7624 91.0655 39.5827 90.5592 33.9775 86.5087C32.9699 85.7493 31.9622 84.9265 31.1435 83.9772C30.1988 82.9013 29.3171 81.6988 28.6243 80.4331C25.4123 74.5473 25.6643 67.3957 27.6166 61.0669C30.0098 53.6622 34.8593 46.9537 40.6534 41.7008Z" fill="#DF81B5"/>
<path id="Vector_57" fill-rule="evenodd" clip-rule="evenodd" d="M40.634 41.7141C46.5088 36.3926 53.8997 32.2748 61.6696 30.7544C68.2393 29.4874 75.4407 29.9942 80.9996 33.9853C82.0104 34.7455 83.0211 35.5691 83.8423 36.5193C84.7898 37.5963 85.6742 38.7366 86.3691 40.0036C89.5908 45.8952 89.3381 53.0538 87.3798 59.3256C84.9793 66.8009 80.1784 73.5794 74.3668 78.7742C68.492 84.0956 61.1643 88.2134 53.3312 89.7972C46.7615 91.0642 39.5601 90.5574 34.0012 86.5663C32.9904 85.8061 31.9797 84.9826 31.1585 84.0323C30.211 82.9553 29.3266 81.815 28.6317 80.548C25.41 74.6564 25.6627 67.4978 27.621 61.2261C30.0214 53.6873 34.8224 46.9088 40.634 41.7141Z" fill="#E180B4"/>
<path id="Vector_58" fill-rule="evenodd" clip-rule="evenodd" d="M40.6825 41.7385C46.5514 36.4693 53.9349 32.3428 61.697 30.7557C68.26 29.486 75.3911 29.9939 81.0075 33.9934C82.0172 34.7552 82.9638 35.5805 83.8473 36.5328C84.7939 37.612 85.6774 38.7547 86.3716 40.0244C89.59 45.9284 89.3376 53.0386 87.3813 59.3235C85.0463 66.8147 80.1871 73.6075 74.3813 78.8132C68.4493 84.0823 61.0659 88.2723 53.3038 89.7959C46.7408 91.0656 39.6097 90.5577 33.9933 86.5582C32.9836 85.7964 32.037 84.9711 31.1535 84.0189C30.2069 82.9396 29.3234 81.7969 28.6292 80.5272C25.4108 74.6232 25.6632 67.513 27.6195 61.2281C30.0176 53.6735 34.8768 46.9441 40.6825 41.7385Z" fill="#E07EB3"/>
<path id="Vector_59" fill-rule="evenodd" clip-rule="evenodd" d="M40.6632 41.7507C46.5499 36.4759 53.8924 32.3451 61.7413 30.7564C68.261 29.4853 75.4769 29.9937 81.0471 33.9975C82.0599 34.7601 83.0093 35.5862 83.8955 36.5395C84.845 37.6199 85.7311 38.7638 86.3641 40.0348C89.5923 45.9451 89.3391 53.0628 87.3769 59.2908C84.9716 66.8533 80.1609 73.5898 74.3376 78.8009C68.4509 84.0757 61.1084 88.2065 53.2595 89.7953C46.7398 91.0663 39.5239 90.5579 33.9537 86.5542C32.9409 85.7915 31.9914 84.9654 31.1053 84.0121C30.1558 82.9318 29.2696 81.7878 28.6367 80.5168C25.4085 74.6066 25.6617 67.4889 27.6239 61.2609C30.0292 53.7618 34.9031 46.9619 40.6632 41.7507Z" fill="#E07CB2"/>
<path id="Vector_60" fill-rule="evenodd" clip-rule="evenodd" d="M40.6802 41.7238C46.5803 36.4323 53.9396 32.2884 61.743 30.7583C68.2775 29.4833 75.4465 29.9933 81.0294 34.0097C82.0444 34.7747 82.9961 35.6035 83.8843 36.5598C84.8359 37.6436 85.6606 38.7912 86.3585 40.0662C89.594 45.9952 89.3403 53.1355 87.3736 59.3833C85.0262 66.8423 80.1412 73.6001 74.3679 78.8278C68.4678 84.1193 61.1085 88.2632 53.3052 89.7933C46.7706 91.0684 39.6017 90.5583 34.0188 86.5419C33.0037 85.7769 32.0521 84.9481 31.1639 83.9918C30.2122 82.908 29.3875 81.7605 28.6896 80.4854C25.3906 74.6202 25.6444 67.4799 27.6745 61.2321C30.0219 53.7093 34.8435 46.9515 40.6802 41.7238Z" fill="#DE7AB1"/>
<path id="Vector_61" fill-rule="evenodd" clip-rule="evenodd" d="M41.2538 42.3767C47.0836 37.1493 54.3552 33.0555 62.0657 31.544C68.5224 30.2844 75.6059 30.7883 81.1223 34.756C82.1253 35.5118 83.0656 36.3305 83.9432 37.2752C84.8835 38.3459 85.6984 39.4796 86.388 40.7392C89.585 46.5334 89.3342 53.5872 87.391 59.7593C85.0716 67.191 80.2447 73.8669 74.5403 78.9683C68.7104 84.1957 61.4388 88.2894 53.7284 89.8009C47.2717 91.0606 40.1881 90.5567 34.6717 86.5889C33.6687 85.8332 32.7284 85.0144 31.8508 84.0697C30.9105 82.9991 30.0956 81.8654 29.4061 80.6058C26.209 74.8116 26.4598 67.7578 28.4031 61.5857C30.7225 54.154 35.4866 47.4781 41.2538 42.3767Z" fill="#DD77B0"/>
<path id="Vector_62" fill-rule="evenodd" clip-rule="evenodd" d="M41.2973 42.248C47.145 37.0794 54.4388 33.0317 62.1098 31.5371C68.5862 30.2917 75.6914 30.7899 81.1617 34.713C82.1678 35.4603 83.1109 36.2699 83.9283 37.1417C84.8715 38.2003 85.6889 39.3212 86.3806 40.5667C89.5873 46.2957 89.3358 53.2703 87.3866 59.3107C85.0601 66.5966 80.2186 73.1975 74.4967 78.3038C68.6491 83.4725 61.3553 87.5202 53.6842 89.0147C47.2078 90.2602 40.1027 89.762 34.6323 85.8388C33.6263 85.0916 32.6831 84.282 31.8657 83.4102C30.9226 82.3516 30.1051 81.2307 29.4135 79.9852C26.2067 74.2561 26.4582 67.2816 28.4074 61.2412C30.7968 53.9553 35.5755 47.3544 41.2973 42.248Z" fill="#DE75AE"/>
<path id="Vector_63" fill-rule="evenodd" clip-rule="evenodd" d="M41.2933 42.26C47.1534 37.0859 54.3998 33.0339 62.1503 31.5378C68.5776 30.291 75.698 30.7897 81.18 34.7171C82.1882 35.4651 83.1334 36.2755 83.9525 37.1483C84.8977 38.208 85.7169 39.3301 86.41 40.5146C89.6236 46.2497 89.3086 53.1693 87.3552 59.2785C85.0238 66.5721 80.2348 73.1801 74.5007 78.2918C68.6406 83.4659 61.3942 87.518 53.6437 89.0141C47.2165 90.2609 40.0961 89.7622 34.614 85.8348C33.6058 85.0868 32.6607 84.2763 31.8415 83.4036C30.8963 82.3438 30.0772 81.2217 29.384 80.0373C26.1704 74.3021 26.4855 67.3825 28.4388 61.2734C30.7073 53.9174 35.5592 47.3095 41.2933 42.26Z" fill="#DC73AD"/>
<path id="Vector_64" fill-rule="evenodd" clip-rule="evenodd" d="M41.3079 42.2732C47.111 37.094 54.4278 33.1003 62.1862 31.5403C68.62 30.2922 75.7476 30.7915 81.1722 34.6603C82.1814 35.3467 83.1276 36.2203 83.9476 37.094C84.8937 38.0924 85.7137 39.278 86.4076 40.4636C89.6245 46.2045 89.3091 53.131 87.3537 59.1839C85.083 66.6096 80.2261 73.2241 74.4861 78.2786C68.6831 83.4579 61.3662 87.4516 53.6078 89.0116C47.174 90.2596 40.0464 89.7604 34.6218 85.8916C33.6126 85.2051 32.6665 84.3315 31.8465 83.4579C30.9003 82.4595 30.0803 81.2739 29.3865 80.0883C26.1696 74.3474 26.485 67.4208 28.4403 61.368C30.7742 54.0046 35.568 47.3901 41.3079 42.2732Z" fill="#DD71AC"/>
<path id="Vector_65" fill-rule="evenodd" clip-rule="evenodd" d="M41.3107 42.259C47.1238 37.0576 54.4534 33.0469 62.1621 31.5429C68.607 30.2895 75.6838 30.7909 81.181 34.6762C82.192 35.3656 83.1398 36.2429 83.9612 37.1203C84.909 38.123 85.7304 39.3136 86.4254 40.5043C89.5847 46.2071 89.332 53.1632 87.3732 59.2419C85.0353 66.6367 80.2332 73.2168 74.4833 78.2929C68.6702 83.4943 61.3406 87.505 53.632 89.009C47.187 90.2623 40.1102 89.761 34.613 85.8756C33.6021 85.1863 32.6543 84.3089 31.8329 83.4316C30.8851 82.4289 30.0637 81.2382 29.3686 80.0475C26.2093 74.3448 26.4621 67.3887 28.4208 61.3099C30.7587 53.9778 35.5608 47.3351 41.3107 42.259Z" fill="#DC6EAB"/>
<path id="Vector_66" fill-rule="evenodd" clip-rule="evenodd" d="M41.1413 42.259C46.8858 37.0576 54.1287 33.0469 61.7464 31.5429C68.1152 30.2895 75.1084 30.7909 80.4782 34.6762C81.4772 35.3656 82.4138 36.1803 83.2256 37.1203C84.1621 38.123 84.9739 39.251 85.6607 40.5043C88.7827 46.2071 88.5329 53.1632 86.5973 59.2419C84.287 66.574 79.5416 73.1541 73.8596 78.2929C68.1152 83.4943 60.8722 87.505 53.2546 89.009C46.8858 90.2624 39.8925 89.761 34.5227 85.8756C33.5237 85.1863 32.5871 84.3716 31.7754 83.4316C30.8388 82.4289 30.0271 81.3009 29.3403 80.0475C26.2183 74.3448 26.468 67.3887 28.4037 61.3099C30.7764 53.9152 35.5218 47.3351 41.1413 42.259Z" fill="#DC6CAA"/>
<path id="Vector_67" fill-rule="evenodd" clip-rule="evenodd" d="M41.1704 42.2833C46.9266 37.1335 54.1218 33.0514 61.7551 31.5442C68.0744 30.2881 75.0819 30.7906 80.4627 34.6843C81.4638 35.3751 82.4023 36.1915 83.2157 37.1335C84.1542 38.1383 84.9676 39.2688 85.6558 40.5248C88.7842 46.2398 88.5339 53.1479 86.5943 59.2397C84.2793 66.5875 79.5242 73.1817 73.8306 78.2686C68.0744 83.4183 60.8791 87.5005 53.2459 89.0077C46.9266 90.2637 39.919 89.7613 34.5382 85.8676C33.5371 85.1768 32.5986 84.3604 31.7852 83.4183C30.8467 82.4135 30.0334 81.2831 29.3451 80.0271C26.2167 74.3121 26.467 67.4039 28.4066 61.3122C30.7216 54.0272 35.4767 47.433 41.1704 42.2833Z" fill="#DE6CA9"/>
<path id="Vector_68" fill-rule="evenodd" clip-rule="evenodd" d="M41.1368 42.2954C46.9049 37.1402 54.1149 33.0537 61.7638 31.5448C68.0961 30.2875 75.118 30.7904 80.5099 34.6883C81.513 35.3798 82.3908 36.1971 83.2685 37.1402C84.2089 38.1461 85.024 39.2777 85.6509 40.5351C88.7857 46.2562 88.535 53.1717 86.5914 59.2072C84.2716 66.5628 79.5067 73.1641 73.8641 78.2565C68.0961 83.4117 60.8861 87.4982 53.2372 89.007C46.9049 90.2644 39.8829 89.7615 34.4911 85.8636C33.4879 85.172 32.6102 84.3547 31.7324 83.4117C30.792 82.4058 29.977 81.2742 29.35 80.0168C26.2152 74.2957 26.466 67.3801 28.4096 61.3447C30.6666 53.989 35.4315 47.3878 41.1368 42.2954Z" fill="#DA68A7"/>
<path id="Vector_69" fill-rule="evenodd" clip-rule="evenodd" d="M41.166 42.3321C46.9459 37.1602 54.1708 33.0605 61.7726 31.5468C68.1179 30.2854 75.0914 30.7899 80.4944 34.7004C81.4996 35.3942 82.3791 36.2141 83.2587 37.1602C84.2011 38.1693 85.0178 39.3046 85.646 40.503C88.7873 46.2425 88.536 53.1173 86.5884 59.2353C84.2639 66.5516 79.4892 73.1741 73.835 78.2829C68.1179 83.4548 60.893 87.4913 53.2284 89.0051C46.8831 90.2665 39.9095 89.7619 34.5065 85.8515C33.5014 85.1577 32.6218 84.3378 31.7423 83.3917C30.7999 82.3825 29.9832 81.2473 29.3549 80.0489C26.2137 74.3094 26.465 67.4346 28.4125 61.3166C30.7371 54.0634 35.5117 47.4409 41.166 42.3321Z" fill="#DA68A7"/>
<path id="Vector_70" fill-rule="evenodd" clip-rule="evenodd" d="M41.1819 42.2934C46.9784 37.1104 54.1611 33.0651 61.8479 31.5481C68.2115 30.284 75.2052 30.7896 80.5607 34.7085C81.5688 35.4038 82.4509 36.2255 83.27 37.1104C84.2151 38.1217 85.0342 39.2594 85.6642 40.4604C88.8145 46.1491 88.4995 53.1019 86.6093 59.1698C84.2781 66.5019 79.4896 73.1387 73.8191 78.2585C68.0225 83.4415 60.8398 87.4868 53.153 89.0037C46.7894 90.2679 39.7957 89.7622 34.4402 85.8434C33.4321 85.1481 32.55 84.3264 31.731 83.4415C30.7859 82.4302 29.9668 81.2924 29.3367 80.0915C26.1864 74.4028 26.5014 67.45 28.3916 61.3821C30.7229 54.05 35.4483 47.4132 41.1819 42.2934Z" fill="#DA65A6"/>
<path id="Vector_71" fill-rule="evenodd" clip-rule="evenodd" d="M41.1819 42.3191C46.9784 37.1253 54.1611 33.0715 61.8479 31.5514C68.1485 30.2846 75.1422 30.7913 80.5607 34.655C81.5688 35.3517 82.4509 36.1752 83.27 37.0619C84.2151 38.0754 84.9712 39.2155 85.6642 40.4189C88.8145 46.1195 88.4995 53.0869 86.6093 59.1041C84.2781 66.4516 79.5526 73.1022 73.8191 78.2328C68.0225 83.4266 60.8398 87.4804 53.153 89.0005C46.8524 90.2673 39.8587 89.7606 34.4402 85.8969C33.4321 85.2001 32.55 84.3767 31.731 83.49C30.7859 82.4765 30.0298 81.3364 29.3367 80.1329C26.1864 74.4324 26.5014 67.465 28.3916 61.4477C30.7859 54.1003 35.5113 47.4496 41.1819 42.3191Z" fill="#D963A5"/>
<path id="Vector_72" fill-rule="evenodd" clip-rule="evenodd" d="M41.1628 42.3314C46.9774 37.1319 54.1824 33.0738 61.8298 31.552C68.15 30.2839 75.1654 30.7911 80.5375 34.659C81.5488 35.3565 82.4336 36.1808 83.2552 37.0685C84.2032 38.0831 84.9617 39.2244 85.6569 40.4292C88.817 46.1359 88.501 53.0474 86.6049 59.1346C84.2664 66.4899 79.5263 73.0844 73.8381 78.2205C68.0236 83.4199 60.8186 87.478 53.1712 88.9998C46.851 90.268 39.8356 89.7607 34.4634 85.8928C33.4522 85.1954 32.5674 84.371 31.7457 83.4833C30.7977 82.4688 30.0393 81.3274 29.3441 80.1227C26.184 74.416 26.5 67.5045 28.3961 61.4173C30.6713 54.0619 35.4747 47.4041 41.1628 42.3314Z" fill="#D961A4"/>
<path id="Vector_73" fill-rule="evenodd" clip-rule="evenodd" d="M41.1657 42.3437C46.9272 37.1387 54.2082 33.0761 61.8691 31.5527C68.2004 30.2832 75.1648 30.791 80.5464 34.6631C81.5594 35.3613 82.4458 36.1865 83.2689 37.0752C84.2185 38.0908 84.9783 39.2334 85.6747 40.4394C88.7771 46.1524 88.5238 53.0713 86.6244 59.1016C84.2819 66.4649 79.5334 73.0665 73.8352 78.2081C68.0737 83.4132 60.7927 87.4757 53.1319 88.9992C46.8006 90.2687 39.8362 89.7609 34.4546 85.8888C33.4415 85.1906 32.5552 84.3654 31.7321 83.4767C30.7824 82.4611 30.0226 81.3185 29.3262 80.1124C26.2239 74.3995 26.4771 67.4805 28.3765 61.4503C30.7191 54.0869 35.5309 47.4854 41.1657 42.3437Z" fill="#DA5EA3"/>
<path id="Vector_74" fill-rule="evenodd" clip-rule="evenodd" d="M41.1805 42.3172C46.9479 37.0952 54.1731 33.0194 61.8419 31.5547C68.1798 30.2811 75.1514 30.7905 80.5386 34.6752C81.5527 35.3757 82.44 36.2036 83.2639 37.0952C84.2146 38.1141 84.9751 39.2604 85.6723 40.4704C88.7778 46.2019 88.5243 53.0797 86.623 59.1296C84.278 66.5169 79.5246 73.14 73.8205 78.2346C68.053 83.4567 60.8279 87.5324 53.159 88.9971C46.8212 90.2708 39.8495 89.7613 34.4623 85.8767C33.4483 85.1761 32.561 84.3483 31.737 83.4567C30.7864 82.4378 30.0258 81.2915 29.3287 80.0815C26.2231 74.35 26.4766 67.4722 28.378 61.4222C30.723 54.0986 35.4764 47.4119 41.1805 42.3172Z" fill="#D95CA2"/>
<path id="Vector_75" fill-rule="evenodd" clip-rule="evenodd" d="M41.1952 42.3296C46.9687 37.1019 54.2014 33.0217 61.8781 31.5554C68.2226 30.2803 75.138 30.7904 80.5308 34.6793C81.5459 35.3806 82.4342 36.2093 83.2589 37.1019C84.2106 38.1219 84.9719 39.2695 85.6698 40.417C88.7786 46.091 88.5248 53.04 86.6215 59.0965C84.2741 66.4281 79.5157 73.1221 73.8057 78.2223C68.0323 83.45 60.7996 87.5302 53.1228 88.9965C46.7783 90.2715 39.8629 89.7615 34.4701 85.8726C33.455 85.1713 32.5668 84.3425 31.742 83.45C30.7903 82.43 30.029 81.2824 29.3311 80.1349C26.2223 74.4609 26.4761 67.5118 28.3794 61.4554C30.7269 54.0601 35.4852 47.4298 41.1952 42.3296Z" fill="#D85BA2"/>
<path id="Vector_76" fill-rule="evenodd" clip-rule="evenodd" d="M41.7847 42.342C47.501 37.1086 54.6621 33.0878 62.2628 31.5561C68.4816 30.2796 75.3914 30.7902 80.668 34.6833C81.6103 35.3854 82.5525 36.2151 83.3691 37.1086C84.3114 38.1297 85.0652 39.2147 85.6933 40.4273C88.7713 46.1075 88.5201 53.0002 86.6356 59.0633C84.3114 66.4028 79.6001 73.0403 74.0095 78.2099C68.2932 83.4433 61.1321 87.4641 53.5314 88.9958C47.3125 90.2722 40.4027 89.7617 35.1262 85.8685C34.1839 85.1665 33.2417 84.3368 32.4251 83.4433C31.4828 82.4221 30.729 81.3372 30.1009 80.1245C27.0229 74.4444 27.2741 67.5516 29.1586 61.4886C31.42 54.149 36.194 47.4477 41.7847 42.342Z" fill="#D959A0"/>
<path id="Vector_77" fill-rule="evenodd" clip-rule="evenodd" d="M41.8367 42.8338C47.5652 37.7881 54.7416 33.8014 62.2957 32.3064C68.5278 31.1228 75.3895 31.5588 80.7403 35.3587C81.6846 36.0439 82.6288 36.8537 83.3842 37.7258C84.2655 38.7225 85.0839 39.7815 85.7134 40.965C88.798 46.509 88.4832 53.2366 86.6577 59.0921C84.3285 66.2558 79.6072 72.7342 74.0045 77.7176C68.276 82.7633 61.0996 86.75 53.5455 88.245C47.3134 89.4286 40.4517 88.9925 35.1009 85.1927C34.1567 84.5075 33.2124 83.6977 32.457 82.8256C31.5757 81.8289 30.7573 80.7699 30.1278 79.5864C26.9803 74.0423 27.295 67.3147 29.1835 61.4592C31.4498 54.2956 36.1711 47.8172 41.8367 42.8338Z" fill="#D857A0"/>
<path id="Vector_78" fill-rule="evenodd" clip-rule="evenodd" d="M41.8586 42.8593C47.5934 37.8029 54.7146 33.8077 62.34 32.3095C68.5789 31.1234 75.4481 31.5604 80.7417 35.3059C81.687 35.9926 82.6323 36.8041 83.3886 37.678C84.2708 38.6768 85.0901 39.738 85.7203 40.9241C88.8082 46.4799 88.4931 53.1593 86.6026 59.0272C84.2708 66.206 79.6074 72.6982 73.9356 77.6921C68.2008 82.7485 61.0796 86.7437 53.4542 88.2419C47.2153 89.4279 40.3461 88.991 35.0525 85.2455C34.1072 84.5588 33.1619 83.7473 32.4056 82.8734C31.5234 81.8746 30.7041 80.8134 30.0739 79.6273C26.9859 74.0715 27.301 67.3921 29.1916 61.5242C31.5234 54.2829 36.2498 47.8532 41.8586 42.8593Z" fill="#DA549F"/>
<path id="Vector_79" fill-rule="evenodd" clip-rule="evenodd" d="M41.6066 42.8333C47.2897 37.7602 54.3467 33.7519 61.8409 32.3114C68.0237 31.1215 74.7684 31.5599 80.0144 35.3177C80.9511 36.0066 81.8255 36.7582 82.6373 37.635C83.5117 38.6371 84.3235 39.7018 84.9481 40.8917C88.0082 46.4658 87.6959 53.1672 85.8224 59.0544C83.6366 66.2569 78.9527 72.7704 73.3945 77.7181C67.7114 82.7911 60.6544 86.7995 53.1602 88.24C46.9774 89.4299 40.2327 88.9915 34.9867 85.2337C34.05 84.5448 33.1756 83.7932 32.3638 82.9164C31.4894 81.9143 30.6776 80.8496 30.053 79.6597C26.9929 74.0856 27.3052 67.3842 29.1787 61.497C31.3645 54.3572 36.0484 47.8437 41.6066 42.8333Z" fill="#D9539E"/>
<path id="Vector_80" fill-rule="evenodd" clip-rule="evenodd" d="M41.8663 42.8455C47.6158 37.7669 54.7553 33.7541 62.3371 32.3121C68.5289 31.1208 75.4157 31.5597 80.723 35.3216C81.6707 36.0113 82.5553 36.7637 83.3766 37.6415C84.2612 38.6446 85.0825 39.7105 85.7143 40.9018C88.8102 46.4193 88.4943 53.128 86.5989 59.0217C84.3243 66.2321 79.5857 72.69 73.9625 77.7059C68.213 82.7845 61.0735 86.7972 53.4917 88.2393C47.2999 89.4306 40.4131 88.9917 35.1058 85.2298C34.1581 84.5401 33.2736 83.7877 32.4522 82.9099C31.5677 81.9067 30.7463 80.8409 30.1145 79.6496C27.0186 74.1321 27.2713 67.4233 29.1668 61.5297C31.5045 54.3193 36.1799 47.8614 41.8663 42.8455Z" fill="#D6529E"/>
<path id="Vector_81" fill-rule="evenodd" clip-rule="evenodd" d="M41.6669 42.8699C47.2955 37.7802 54.4251 33.8214 61.8674 32.3134C67.9964 31.1195 74.8133 31.5593 80.0041 35.3295C80.9422 36.0207 81.8178 36.7748 82.6308 37.6545C83.5064 38.6599 84.3194 39.7281 84.9448 40.8592C88.0093 46.3888 87.6966 53.1123 85.8204 58.9561C83.5689 66.1823 78.8784 72.6545 73.3123 77.6814C67.6837 82.7712 60.5541 86.7299 53.1118 88.238C46.9828 89.4319 40.1659 88.9921 34.9751 85.2219C34.037 84.5306 33.1614 83.7766 32.3484 82.8969C31.4728 81.8915 30.6598 80.8233 30.0344 79.6922C27.0324 74.2254 27.2826 67.5019 29.1588 61.5953C31.4103 54.4319 36.1008 47.8969 41.6669 42.8699Z" fill="#D8519D"/>
<path id="Vector_82" fill-rule="evenodd" clip-rule="evenodd" d="M41.6867 42.8822C47.3233 37.7868 54.4004 33.8238 61.9159 32.314C68.0536 31.1188 74.8176 31.5591 80.0158 35.3335C80.9552 36.0255 81.832 36.7803 82.6462 37.661C83.523 38.6675 84.3372 39.7369 84.9635 40.8692C87.9697 46.4049 87.7192 53.1359 85.8403 58.9861C83.5857 66.1574 78.8885 72.6996 73.3144 77.6692C67.6778 82.7646 60.6007 86.7276 53.0852 88.2374C46.9475 89.4326 40.1836 88.9922 34.9853 85.2179C34.0459 84.5259 33.1691 83.7711 32.3549 82.8904C31.4781 81.8839 30.6639 80.8145 30.0376 79.6822C27.0314 74.1464 27.2819 67.4784 29.1608 61.5653C31.4155 54.394 36.1126 47.9147 41.6867 42.8822Z" fill="#D74E9C"/>
<path id="Vector_83" fill-rule="evenodd" clip-rule="evenodd" d="M41.6739 42.8945C47.3126 37.7935 54.3924 33.8261 61.9107 32.3147C68.0507 31.1181 74.8172 31.559 80.0174 35.3375C80.9572 36.0302 81.8343 36.7859 82.6488 37.6676C83.526 38.6752 84.2778 39.7458 84.967 40.8793C86.408 43.5243 87.0972 46.4211 87.2225 49.381C87.3478 52.5927 86.8465 55.8674 85.8441 58.9532C83.5886 66.1324 78.8896 72.6818 73.3135 77.6569C67.6748 82.7579 60.595 86.7253 53.0767 88.2367C46.9367 89.4333 40.1702 88.9924 34.97 85.2139C34.0302 84.5212 33.1531 83.7655 32.3386 82.8838C31.4615 81.8762 30.7096 80.8056 30.0204 79.6721C28.5794 77.0271 27.8902 74.1303 27.7649 71.1704C27.7023 67.8957 28.2035 64.684 29.206 61.5982C31.4615 54.356 36.1604 47.8696 41.6739 42.8945Z" fill="#D84E9C"/>
<path id="Vector_84" fill-rule="evenodd" clip-rule="evenodd" d="M41.7081 42.8573C47.3738 37.7454 54.4874 33.7694 61.9787 32.3179C68.085 31.1188 74.8838 31.5606 80.1088 35.2841C81.0531 35.9783 81.9344 36.7356 82.6898 37.6192C83.5712 38.5658 84.3266 39.7018 84.9561 40.8378C86.404 43.4253 87.0965 46.3915 87.2224 49.3576C87.3483 52.5763 86.8447 55.858 85.8374 58.9504C83.5712 66.1449 78.8498 72.6453 73.31 77.6941C67.6443 82.806 60.5308 86.782 53.0395 88.2335C46.9331 89.4326 40.1343 88.9908 34.9093 85.2673C33.9651 84.5731 33.0837 83.8158 32.3283 82.9322C31.447 81.9856 30.6916 80.8496 30.062 79.7136C28.6141 77.1261 27.9217 74.1599 27.7958 71.1937C27.6069 67.912 28.1735 64.6934 29.1807 61.601C31.447 54.4065 36.1054 47.9061 41.7081 42.8573Z" fill="#D84C9B"/>
<path id="Vector_85" fill-rule="evenodd" clip-rule="evenodd" d="M41.6747 42.882C47.3524 37.7587 54.4811 33.774 61.9882 32.3192C68.1075 31.1175 74.9207 31.5602 80.0937 35.292C81.04 35.9877 81.9232 36.7467 82.6802 37.6322C83.5634 38.581 84.3204 39.6562 84.9513 40.858C86.4022 43.4512 87.0962 46.3607 87.2223 49.3335C87.3485 52.5592 86.8438 55.8482 85.8345 58.8842C83.6265 66.0947 78.9582 72.6094 73.3436 77.6694C67.6659 82.7927 60.5373 86.7774 53.0301 88.2322C46.9108 89.4339 40.0976 88.9912 34.9246 85.2594C33.9783 84.5637 33.0951 83.8047 32.3381 82.9192C31.4549 81.9704 30.6979 80.8952 30.067 79.6934C28.6161 77.1002 27.9221 74.1907 27.796 71.2179C27.6067 67.9289 28.1745 64.7032 29.1208 61.6039C31.4549 54.3934 36.1232 47.8787 41.6747 42.882Z" fill="#D84B9B"/>
<path id="Vector_86" fill-rule="evenodd" clip-rule="evenodd" d="M41.7247 42.8943C47.404 37.8287 54.4716 33.7762 61.9809 32.3199C68.102 31.1168 74.854 31.56 80.0916 35.2959C81.0382 35.9924 81.9216 36.7523 82.6789 37.6388C83.5623 38.5886 84.3196 39.665 84.9506 40.8681C86.402 43.4642 87.0961 46.3769 87.2223 49.353C87.3485 52.5823 86.8437 55.8116 85.8341 58.9143C83.5623 66.1328 78.8927 72.6548 73.2764 77.6571C67.5971 82.7227 60.5295 86.7751 53.0202 88.2315C46.8992 89.4346 40.1471 88.9913 34.9095 85.2555C33.9629 84.5589 33.0795 83.7991 32.3222 82.9126C31.4388 81.9628 30.6815 80.8864 30.0505 79.6833C28.5991 77.0872 27.905 74.1744 27.7788 71.1984C27.6526 67.9691 28.1574 64.7398 29.167 61.6371C31.4388 54.4186 36.1715 47.8966 41.7247 42.8943Z" fill="#D9499A"/>
<path id="Vector_87" fill-rule="evenodd" clip-rule="evenodd" d="M41.7395 42.9316C47.4248 37.8491 54.5 33.8466 62.0173 32.3219C68.1448 31.1148 74.9041 31.5595 80.084 35.3078C81.0316 36.0067 81.916 36.7691 82.674 37.595C83.5584 38.5479 84.3165 39.628 84.9482 40.7715C86.4011 43.3763 87.096 46.2988 87.2223 49.2848C87.3487 52.5249 86.8433 55.765 85.8326 58.878C83.5584 66.1206 78.8838 72.6008 73.2616 77.6198C67.5763 82.7023 60.5012 86.7048 52.9839 88.2295C46.8563 89.4366 40.0971 88.9919 34.9171 85.2435C33.9695 84.5447 33.0851 83.7823 32.3271 82.9564C31.4427 82.0034 30.6846 80.9234 30.0529 79.7798C28.6 77.175 27.9051 74.2526 27.7788 71.2666C27.6525 68.0265 28.1578 64.7864 29.1685 61.6734C31.4427 54.4943 36.1173 47.9506 41.7395 42.9316Z" fill="#D8489A"/>
<path id="Vector_88" fill-rule="evenodd" clip-rule="evenodd" d="M41.7059 42.9566C47.4034 37.8628 54.4936 33.8513 62.0269 32.3232C68.1042 31.1134 74.8778 31.5591 80.0688 35.3158C81.0184 36.0162 81.9046 36.7803 82.6643 37.6081C83.5506 38.5632 84.3102 39.6456 84.9433 40.7917C86.3993 43.4023 87.0957 46.3313 87.2223 49.2602C87.3489 52.5076 86.8424 55.7549 85.8296 58.8112C83.5506 66.0699 78.866 72.5646 73.2952 77.5948C67.5977 82.6886 60.5075 86.7 52.9742 88.2282C46.897 89.438 40.1233 88.9923 34.9323 85.2356C33.9827 84.5351 33.0965 83.7711 32.3368 82.9433C31.4505 81.9882 30.6909 80.9058 30.0578 79.7597C28.6018 77.1491 27.9054 74.2201 27.7788 71.2911C27.6522 68.0438 28.1587 64.7965 29.1715 61.7402C31.4505 54.5451 36.1351 47.9868 41.7059 42.9566Z" fill="#D74599"/>
<path id="Vector_89" fill-rule="evenodd" clip-rule="evenodd" d="M41.7357 42.9054C47.4453 37.8059 54.5506 33.79 62.0365 32.3239C68.1268 31.1127 74.9149 31.5589 80.1169 35.3198C81.0685 36.021 81.8933 36.786 82.718 37.6146C83.6061 38.5708 84.3674 39.6544 85.0018 40.8018C86.4609 43.4154 87.1588 46.2838 87.2222 49.2798C87.3491 52.5308 86.8416 55.7817 85.8265 58.8414C83.5427 66.0445 78.8481 72.6102 73.2654 77.646C67.5558 82.7455 60.4505 86.7614 52.9646 88.2275C46.8743 89.4387 40.0862 88.9925 34.8842 85.2315C33.9326 84.5304 33.1078 83.7654 32.2831 82.9368C31.395 81.9806 30.6337 80.8969 29.9993 79.7495C28.5402 77.136 27.8423 74.2675 27.7789 71.2716C27.652 68.0206 28.1595 64.7697 29.1746 61.7099C31.4584 54.4431 36.153 47.9412 41.7357 42.9054Z" fill="#D74498"/>
<path id="Vector_90" fill-rule="evenodd" clip-rule="evenodd" d="M41.7506 42.9179C47.4028 37.8127 54.5157 33.7923 62.0731 32.3245C68.1699 31.112 74.9017 31.5587 80.1093 35.3239C81.0619 36.0258 81.8876 36.7916 82.7132 37.6212C83.6023 38.5784 84.3644 39.6633 84.9994 40.812C86.3966 43.4284 87.0952 46.3001 87.2222 49.2994C87.3492 52.554 86.8412 55.8086 85.825 58.8718C83.5387 66.0829 78.8392 72.6559 73.2505 77.6335C67.5983 82.7387 60.4854 86.7591 52.928 88.2269C46.8312 89.4393 40.0994 88.9926 34.8918 85.2275C33.9392 84.5256 33.1135 83.7598 32.2879 82.9302C31.3988 81.9729 30.6367 80.8881 30.0017 79.7394C28.6045 77.123 27.9059 74.2513 27.7789 71.2519C27.6519 67.9974 28.1599 64.7428 29.1761 61.6796C31.4623 54.4685 36.1619 47.9593 41.7506 42.9179Z" fill="#D74398"/>
<path id="Vector_91" fill-rule="evenodd" clip-rule="evenodd" d="M41.7806 43.438C47.4448 38.4582 54.5729 34.5367 62.0829 33.105C68.1927 31.9223 74.9389 32.358 80.0941 35.9683C81.0487 36.6531 81.8761 37.4 82.7035 38.2092C83.5945 39.1429 84.3582 40.2011 84.9946 41.3216C86.3948 43.8737 87.0949 46.6748 87.2222 49.5382C87.3495 52.6505 86.8403 55.8251 85.822 58.813C83.5308 65.8469 78.8212 72.1961 73.2206 77.1137C67.5563 82.0934 60.4282 86.015 52.9182 87.4467C46.8084 88.6294 40.0622 88.1936 34.907 84.5833C33.9524 83.8986 33.125 83.1516 32.2976 82.3424C31.4066 81.4087 30.6429 80.3505 30.0065 79.2301C28.6063 76.6779 27.9062 73.8768 27.7789 71.0134C27.6516 67.9011 28.1608 64.7265 29.1791 61.7386C31.4703 54.7047 36.1799 48.3555 41.7806 43.438Z" fill="#D64197"/>
<path id="Vector_92" fill-rule="evenodd" clip-rule="evenodd" d="M42.3535 43.438C47.9543 38.4582 55.0024 34.5367 62.4281 33.105C68.4064 31.9223 75.077 32.358 80.2373 35.9683C81.1812 36.6531 81.9993 37.4 82.7544 38.2092C83.6355 39.1429 84.3906 40.2011 85.0199 41.3216C86.4044 43.8737 87.0966 46.6748 87.2225 49.5382C87.3483 52.6506 86.8449 55.8251 85.838 58.813C83.5725 65.8469 78.9157 72.1961 73.4408 77.1137C67.8401 82.0934 60.7919 86.015 53.3662 87.4467C47.3879 88.6294 40.7173 88.1936 35.5571 84.5833C34.6131 83.8986 33.7951 83.1516 33.0399 82.3424C32.1589 81.4087 31.4037 80.3505 30.7744 79.2301C29.39 76.6779 28.6977 73.8768 28.5719 71.0134C28.446 67.9011 28.9495 64.7265 29.9563 61.7386C32.1589 54.6425 36.8157 48.2933 42.3535 43.438Z" fill="#D73F96"/>
<path id="Vector_93" fill-rule="evenodd" clip-rule="evenodd" d="M42.3349 43.4625C47.9537 38.4716 55.0246 34.6036 62.4743 33.1063C68.4719 31.9209 75.164 32.3576 80.2778 35.9761C81.2248 36.6 82.0455 37.3486 82.8031 38.222C83.687 39.1578 84.4445 40.2184 85.0127 41.279C86.4017 43.7745 87.0961 46.5819 87.2224 49.4517C87.3487 52.571 86.8436 55.7528 85.8335 58.7473C83.6238 65.8595 78.952 72.2229 73.4594 77.0891C67.8406 82.0801 60.7697 85.9481 53.32 87.4453C47.3224 88.6307 40.6303 88.194 35.5166 84.5755C34.5696 83.9517 33.7488 83.203 32.9913 82.3296C32.1074 81.3938 31.3498 80.3332 30.7816 79.2726C29.3927 76.7772 28.6982 73.9698 28.5719 71.1C28.4457 67.9806 28.9507 64.7989 29.9609 61.8043C32.1705 54.7546 36.7792 48.3911 42.3349 43.4625Z" fill="#D73F96"/>
<path id="Vector_94" fill-rule="evenodd" clip-rule="evenodd" d="M42.2257 43.4247C47.7745 38.4225 54.695 34.5457 62.0519 33.1076C67.9749 31.9196 74.5213 32.3573 79.5714 35.9839C80.5066 36.6092 81.3171 37.3595 82.0653 38.2349C82.9381 39.1728 83.6239 40.1732 84.2474 41.2987C85.619 43.7998 86.3049 46.6136 86.4295 49.4898C86.5542 52.6162 86.0555 55.8051 85.0579 58.8064C82.8134 65.872 78.2621 72.1873 72.7756 77.127C67.2267 82.1292 60.3062 86.0059 52.9493 87.444C47.0264 88.632 40.48 88.1944 35.4299 84.5678C34.4947 83.9425 33.6841 83.1921 32.936 82.3168C32.0631 81.3788 31.3773 80.3784 30.7538 79.2529C29.3822 76.7518 28.6964 73.9381 28.5717 71.0618C28.447 67.9354 28.9458 64.7465 29.9433 61.7452C32.1878 54.6796 36.7391 48.3018 42.2257 43.4247Z" fill="#D93C95"/>
<path id="Vector_95" fill-rule="evenodd" clip-rule="evenodd" d="M42.2257 43.4616C47.7745 38.4425 54.695 34.5526 62.0519 33.1096C67.9749 31.9176 74.5213 32.3567 79.5714 35.9956C80.5066 36.623 81.3171 37.3759 82.0653 38.1915C82.9381 39.1326 83.6239 40.1364 84.2474 41.2657C85.619 43.7753 86.3049 46.5986 86.4295 49.4846C86.5542 52.6216 86.0555 55.8213 85.0579 58.7701C82.8134 65.7969 78.2621 72.1963 72.7756 77.09C67.2267 82.1092 60.3062 85.999 52.9493 87.442C47.0264 88.6341 40.48 88.1949 35.4299 84.556C34.4947 83.9286 33.6841 83.1757 32.936 82.3601C32.0631 81.419 31.3773 80.4152 30.7538 79.2859C29.3822 76.7763 28.6964 73.953 28.5717 71.067C28.447 67.93 28.9458 64.7303 29.9433 61.7816C32.1878 54.692 36.8015 48.3553 42.2257 43.4616Z" fill="#D93B95"/>
<path id="Vector_96" fill-rule="evenodd" clip-rule="evenodd" d="M42.1596 43.474C47.7325 38.512 54.6829 34.5549 62.009 33.1103C67.895 31.9169 74.4697 32.3566 79.5416 35.9996C80.4182 36.6277 81.2949 37.3814 82.0463 38.1979C82.9229 39.1401 83.6117 40.1451 84.2378 41.2756C85.6154 43.7881 86.3042 46.6145 86.4294 49.441C86.5546 52.5815 86.0537 55.7221 85.1145 58.737C82.8603 65.7717 78.2893 72.1784 72.8416 77.0776C67.2688 82.0396 60.3184 85.9967 52.9922 87.4413C47.1063 88.6347 40.5316 88.1951 35.4597 84.5521C34.583 83.924 33.7064 83.1702 32.955 82.3537C32.0784 81.4115 31.3896 80.4066 30.7634 79.276C29.3859 76.7636 28.6971 73.9371 28.5719 71.1106C28.4466 67.9701 28.9476 64.8296 29.8868 61.8147C32.0784 54.7799 36.712 48.3732 42.1596 43.474Z" fill="#D83A95"/>
<path id="Vector_97" fill-rule="evenodd" clip-rule="evenodd" d="M42.2222 43.4864C47.7951 38.5188 54.7455 34.5572 62.0716 33.111C67.9576 31.9162 74.5323 32.3564 79.5416 36.0035C80.4182 36.6323 81.2949 37.3869 82.0463 38.2044C82.9229 39.1476 83.6117 40.1537 84.2378 41.2856C85.6154 43.8008 86.3042 46.5676 86.4294 49.4602C86.5546 52.6043 86.0537 55.7483 85.1145 58.7667C82.8603 65.7465 78.2267 72.1604 72.779 77.0652C67.2062 82.0329 60.2557 85.9944 52.9296 87.4407C47.0437 88.6354 40.469 88.1953 35.4597 84.5481C34.583 83.9193 33.7064 83.1647 32.955 82.3473C32.0784 81.404 31.3896 80.3979 30.7634 79.2661C29.3859 76.7508 28.6971 73.984 28.5719 71.0914C28.4466 67.9474 28.9476 64.8033 29.8868 61.785C32.2036 54.7422 36.7746 48.3912 42.2222 43.4864Z" fill="#DA3894"/>
<path id="Vector_98" fill-rule="evenodd" clip-rule="evenodd" d="M42.2848 43.4956C47.7951 38.5121 54.7455 34.6009 62.0716 33.0869C67.9576 31.9514 74.4697 32.3299 79.5416 35.9256C80.4182 36.5565 81.2949 37.3135 82.0463 38.1336C82.8603 39.0798 83.6117 40.0891 84.2378 41.2246C85.6154 43.748 86.3042 46.5236 86.4294 49.3624C86.5546 52.5166 86.0537 55.6707 85.1145 58.6357C82.7976 65.7641 78.2267 72.1355 72.779 77.056C67.2062 82.0396 60.2557 86.0138 52.9296 87.4647C47.0437 88.6002 40.5316 88.2217 35.4597 84.626C34.583 83.9952 33.7064 83.2382 32.955 82.4181C32.141 81.4718 31.3896 80.4625 30.7634 79.327C29.3859 76.8037 28.6971 74.028 28.5719 71.1892C28.4466 68.0351 28.9476 64.8809 29.8868 61.916C32.2662 54.7876 36.8372 48.3531 42.2848 43.4956Z" fill="#DA3794"/>
<path id="Vector_99" fill-rule="evenodd" clip-rule="evenodd" d="M42.2336 43.4699C47.7738 38.4693 54.762 34.5447 62.128 33.0888C68.0459 31.9495 74.5934 32.3292 79.63 35.9373C80.5114 36.5703 81.3927 37.3299 82.0853 38.1528C82.9037 39.1023 83.6592 40.115 84.2888 41.1911C85.6738 43.7231 86.3034 46.5083 86.4293 49.3567C86.5552 52.5217 86.0516 55.6866 85.1072 58.6617C82.8408 65.7512 78.2449 72.1444 72.7677 77.0817C67.2275 82.0824 60.2393 86.0069 52.8733 87.4628C46.9554 88.6022 40.4078 88.2224 35.3713 84.6143C34.4899 83.9813 33.6085 83.2218 32.916 82.3989C32.0975 81.4494 31.3421 80.4366 30.7125 79.3605C29.3274 76.8285 28.6979 74.0434 28.572 71.1949C28.446 68.03 28.9497 64.865 29.8941 61.8899C32.0975 54.8004 36.7564 48.4072 42.2336 43.4699Z" fill="#DA3694"/>
<path id="Vector_100" fill-rule="evenodd" clip-rule="evenodd" d="M42.2003 43.4824C47.7526 38.4761 54.756 34.547 62.138 33.0895C68.0058 31.9488 74.6307 32.329 79.6151 35.9412C80.4984 36.5749 81.3186 37.3354 82.0758 38.1592C82.896 39.1098 83.6531 40.1237 84.2841 41.201C85.6721 43.7359 86.3031 46.5242 86.4293 49.3759C86.5555 52.5445 86.0507 55.7131 85.1043 58.6915C82.896 65.7891 78.227 72.1896 72.8009 77.0692C67.1856 82.0756 60.2452 86.0046 52.8632 87.4621C46.9955 88.6028 40.3706 88.2226 35.3862 84.6104C34.5028 83.9767 33.6826 83.2163 32.9255 82.3924C32.1053 81.4419 31.3481 80.4279 30.7172 79.3506C29.3291 76.8158 28.6982 74.0274 28.572 71.1757C28.4458 68.0071 28.9506 64.8386 29.897 61.8601C32.1053 54.8259 36.7111 48.4254 42.2003 43.4824Z" fill="#D83393"/>
<path id="Vector_101" fill-rule="evenodd" clip-rule="evenodd" d="M42.2421 43.4848C55.8263 31.3031 73.6437 28.8922 82.1102 38.1553C90.5135 47.4185 86.3434 64.8028 72.7592 77.0479C59.175 89.293 41.2943 91.6405 32.8911 82.3774C24.4878 73.1142 28.6578 55.7299 42.2421 43.4848Z" fill="#D83393"/>
<path id="Vector_102" fill-rule="evenodd" clip-rule="evenodd" d="M42.2421 43.4848C55.8263 31.3031 73.6437 28.8922 82.1102 38.1553C90.5135 47.4185 86.3434 64.8028 72.7592 77.0479C59.175 89.293 41.2943 91.6405 32.8911 82.3774C24.4878 73.1142 28.6578 55.7299 42.2421 43.4848Z" fill="#D83393"/>
<path id="Vector_103" fill-rule="evenodd" clip-rule="evenodd" d="M48.3956 78.134L49.1518 73.7583L51.6094 78.9466L56.6508 82.8847L65.032 83.8223L70.7035 81.697L74.3585 79.3842L78.5176 76.0086L76.7531 78.7591L71.8378 82.9472L66.7964 85.3851L61.377 86.4477L54.5712 85.5726L49.4038 82.9472L46.0009 79.8842L48.3956 78.134Z" fill="white"/>
<path id="Vector_104" fill-rule="evenodd" clip-rule="evenodd" d="M58.0531 24.5919L60.8596 21.4144L74.4554 21.478L69.4661 26.2441L62.294 34.2513L57.4294 41.8771L55.3713 46.3891L51.5046 55.4766L57.0552 52.045L63.4789 48.3591L62.1069 46.961L62.1692 44.9275L63.4789 43.2752L65.1005 42.7668L66.9714 43.2752L68.5306 44.292L69.2166 44.9275L71.4618 43.5294L71.0876 40.8604L71.4618 37.6194L73.8317 36.1578L76.0145 34.8232L77.1995 35.2681V40.0978L79.9436 40.8604L81.5651 43.1481L81.6898 47.9143L81.6275 53.6337L81.2533 55.5401L76.1393 58.5269L67.8446 63.2295L61.9822 66.3434L53.5627 71.046L50.5692 72.1899L48.0121 71.618L47.6379 74.7954L47.0143 77.9093L42.2745 80.769L40.3411 80.8961L39.3433 80.07L37.6594 73.4609L35.9755 66.8518L34.1045 59.5437L34.2292 57.1924L39.468 53.9514H41.0895L42.1497 59.1624L43.2723 55.985L44.3325 50.7104L47.0767 43.1481L49.9455 37.3016L53.6251 30.9467L58.0531 24.5919Z" fill="white"/>
<path id="Vector_105" fill-rule="evenodd" clip-rule="evenodd" d="M42.3696 58.6897L42.0356 55.5173H42.8287L42.3696 58.6897Z" fill="#F7EC13"/>
<path id="Vector_106" fill-rule="evenodd" clip-rule="evenodd" d="M69.0501 45.2071L68.2074 43.621C68.7031 43.7267 69.1988 43.8325 69.7936 44.4669L69.0501 45.2071Z" fill="#F7EC13"/>
<path id="Vector_107" fill-rule="evenodd" clip-rule="evenodd" d="M78.5175 40.1842V37.8055C78.5615 37.2769 79.2665 37.0126 79.3106 37.6469V40.4485L78.5175 40.1842Z" fill="#F7EC13"/>
<path id="Vector_108" fill-rule="evenodd" clip-rule="evenodd" d="M61.4591 31.3362C51.4508 40.7523 44.7785 52.7595 42.2607 68.116L39.5541 55.9193L35.3997 58.3207L40.75 78.9857L45.2192 76.5211C46.3522 55.6665 53.1503 42.1426 61.4591 31.3362ZM47.4852 64.1979C47.1075 69.3168 49.4365 71.8446 52.5208 68.6216V69.064L55.1645 67.5473V55.1609L52.5208 56.6776V57.3728C48.807 56.2352 47.674 61.6069 47.4852 64.1979ZM50.3807 64.9563C50.2548 61.1645 51.136 59.1423 52.5208 60.4062V64.8299C51.6396 67.4841 50.4436 67.8001 50.3807 64.9563ZM60.2002 56.5512C60.1372 55.6033 58.8154 56.1089 58.7524 57.436V65.4618L56.0458 67.0417V54.7817L58.6895 53.1387V54.4026C59.3819 52.3171 60.5778 51.5588 61.585 51.8747C62.8439 52.2539 63.0957 53.7074 63.0957 54.8449V63.0604L60.2631 64.7035V56.5512H60.2002ZM66.6835 60.9117L63.9769 62.4916V50.2317L66.6206 48.5254L66.6835 60.9117ZM67.4389 60.2798V57.1832C69.7679 57.6887 69.9567 55.5401 68.3201 53.2651C65.7394 49.5997 68.446 45.492 71.908 45.9344V48.9677C71.0268 48.6518 70.4603 48.8414 70.2714 49.0941C69.4532 50.2317 71.2156 52.0011 71.5303 52.6331C73.6076 57.0568 70.7121 59.9006 67.4389 60.2798ZM77.0695 47.0719C77.1325 45.2392 75.6218 46.2503 75.4959 47.6406V56.1089L72.7893 57.6887V38.7932L75.5589 37.2133V43.8489C76.8807 40.7523 79.8391 41.3211 79.8391 44.86V53.7706L77.0695 55.3505V47.0719ZM60.389 21.5408C52.269 31.5889 45.5339 42.5218 42.2607 57.12L41.883 55.1609C41.7572 54.7186 41.3795 54.529 40.9389 54.5922C40.8759 53.581 40.1835 53.2651 39.4911 53.7074L33.7631 57.12C33.3854 57.436 33.1966 57.8151 33.3854 58.5103L39.1134 80.5024C39.3023 81.0712 39.8688 81.3239 40.4982 80.9448C40.6241 81.6399 41.0648 81.7663 41.7572 81.3871L47.4222 78.2273C47.674 78.101 47.7999 77.8482 47.7999 77.6586C47.9258 75.7627 48.0517 73.93 48.2405 72.0342C49.4994 72.7925 50.8842 72.7925 52.2061 72.1606L82.0422 55.6665C82.294 55.4769 82.4829 55.2873 82.4829 54.9713V45.0496C82.4829 43.5961 81.7275 42.4586 80.7833 41.7634C80.028 40.6891 79.2097 40.3099 78.1396 40.1835V37.0238C78.1396 36.0758 77.8878 35.7598 77.2584 35.8862C77.3213 34.8751 76.8807 34.4959 75.9995 34.8751L71.5933 37.5293C71.2156 37.7821 71.0268 38.1613 71.0268 38.6037V43.6593L69.1384 44.7968C68.5719 44.1649 68.0054 43.7857 67.5018 43.7225C64.1028 40.8155 59.8854 45.176 62.8439 48.5254L52.269 54.7186C54.3462 47.5774 57.1788 41.0683 61.3332 35.3175C64.984 30.2618 69.8938 25.8381 74.8035 21.604H74.0482C62.9068 30.5778 54.661 41.953 50.3177 56.2984L63.5363 48.5254C61.3961 46.6927 62.0885 44.544 63.5992 43.5961C65.3617 42.4586 67.9425 43.7225 68.0684 45.8712L71.4045 43.9121V38.73C71.4045 38.2877 71.5933 37.9717 71.908 37.7189L76.0624 35.3175C76.566 35.0015 76.8178 35.1279 76.8178 35.823V40.6259C79.2097 40.1835 80.6574 41.2579 81.0981 43.8489V54.3394C81.0981 54.4658 81.0351 54.5922 80.9092 54.7186L51.5766 70.9598C49.8771 71.7814 48.3035 71.2758 47.1075 69.8223L46.541 76.5211C46.4781 76.9002 46.541 77.2162 46.1633 77.4058L40.3724 80.5024C39.8688 80.7552 39.617 80.6288 39.4911 80.3128L33.826 58.5103C33.6372 57.9415 33.7001 57.6256 34.0149 57.3096L39.4282 54.0866C39.9317 53.7706 40.3094 53.7706 40.4982 54.6554L41.8201 60.5958C45.0933 43.3433 52.2061 31.7785 60.9555 21.4144H60.389V21.5408ZM49.0588 75.3203L49.1218 74.1196C51.9543 81.7031 57.7453 84.6101 63.9769 83.7886C68.8237 83.1566 73.9223 80.1232 78.0137 75.7627L78.2026 76.0155C74.1111 80.376 69.7049 82.8406 65.5505 83.8518C58.5636 85.558 52.4579 82.5247 49.0588 75.3203ZM46.1633 80.1864L46.6669 79.8704C49.2477 82.7142 52.6467 84.7365 55.8569 85.4949C64.2916 87.5803 72.6634 83.5358 78.2026 76.3947L78.3285 76.7107C69.5161 87.9595 55.4793 89.9185 46.1633 80.1864Z" fill="#2F2E7A"/>
<path id="Vector_109" fill-rule="evenodd" clip-rule="evenodd" d="M47.2682 78.7195L42.0356 81.5905C42.2225 82.3561 42.4094 82.7389 43.3438 82.2923L48.5763 79.2937C48.8878 79.1023 49.1369 78.8471 49.1992 78.5281L49.5107 73.3604C51.0057 73.9984 52.4384 73.7432 53.8089 72.85L82.7125 56.5174C83.0239 56.326 83.2731 56.0708 83.2731 55.688V45.8629C83.3354 44.1403 82.4633 42.9919 81.1552 42.0349C82.0896 43.2471 82.3387 44.5231 82.3387 46.0543V54.5396C82.3387 55.05 82.2764 55.4328 81.7158 55.7518L52.6253 72.212C51.3172 72.9138 50.009 73.0414 48.5763 72.212L48.2026 77.2521C48.1403 77.9539 48.078 78.2729 47.2682 78.7195Z" fill="#F7EC13"/>
<path id="Vector_110" fill-rule="evenodd" clip-rule="evenodd" d="M65.4317 44.4141C66.519 44.4141 67.4144 45.3095 67.4144 46.3968C67.4144 47.4841 66.519 48.3795 65.4317 48.3795C64.3444 48.3795 63.449 47.4841 63.449 46.3968C63.449 45.2455 64.3444 44.4141 65.4317 44.4141Z" fill="#E20C7B"/>
<path id="Vector_111" fill-rule="evenodd" clip-rule="evenodd" d="M63.6981 46.7933C62.7 44.9136 64.9102 43.6172 66.6213 44.9784C65.1241 44.9784 64.1259 45.5618 63.6981 46.7933Z" fill="white"/>
<path id="Vector_112" fill-rule="evenodd" clip-rule="evenodd" d="M78.2907 75.2362L76.5345 73.9745L77.9508 75.6147L76.138 76.7503L78.2907 76.3087L78.0641 78.5167L78.8005 76.2456L80.5 77.4442L79.0271 75.7409L80.8965 74.6053L78.8005 75.2362L78.8571 72.9651L78.2907 75.2362Z" fill="white"/>
</g>
</g>
</g>
</svg>
