<svg width="115" height="115" viewBox="0 0 115 115" fill="none" xmlns="http://www.w3.org/2000/svg">
<g id="logoi-04">
<g id="Group">
<path id="Vector" fill-rule="evenodd" clip-rule="evenodd" d="M32.2699 45.6969C33.9457 45.114 35.6943 44.8226 37.5886 44.8226C40.7943 44.8226 43.2715 45.624 45.0201 47.2998C46.7687 48.9755 47.643 51.3798 47.643 54.5128C47.643 56.3342 47.3516 58.1557 46.6959 60.05C46.113 61.8714 45.2387 63.4743 44.1458 65.0772C43.0529 66.6801 41.8144 67.9915 40.3572 69.0844C38.9 70.2501 37.2971 71.0516 35.6943 71.5616C33.9457 72.1445 31.8328 72.363 29.2099 72.363C28.0441 72.363 27.3155 72.363 27.097 72.2902L26.6598 72.2173V72.1445C27.097 71.9259 27.3884 71.7802 27.607 71.6345L28.4813 70.9787C28.9184 70.6144 29.2827 70.323 29.5742 69.9587C29.8656 69.6673 30.157 69.2301 30.5213 68.6473C30.9585 67.9187 31.3956 67.1172 31.9056 66.1701L36.4957 55.8971C37.5886 53.4199 38.5357 51.6713 39.41 50.6513C40.2843 49.6312 41.2315 49.0484 42.1786 49.0484H42.7615C43.1258 49.0484 43.2715 48.9027 43.2715 48.6841C43.2715 48.4655 42.9801 48.2469 42.4701 48.1741L40.2115 47.9555C37.7343 47.9555 35.7671 48.6841 34.4557 50.1413C33.9457 50.6513 33.5814 51.1613 33.2171 51.6713C32.8528 52.2541 32.4885 53.0556 31.9056 54.0756L31.1042 55.8971L27.6798 64.2029C27.097 65.5144 26.5141 66.8258 25.8584 68.1373C25.2027 69.4487 24.6926 70.323 24.2555 70.9059C24.0369 71.1973 23.8183 71.4159 23.5269 71.7073C23.2355 71.9259 22.944 72.1445 22.6526 72.2902L22.1426 72.5088H20.394C19.7383 72.5088 19.374 72.7273 19.374 73.0916C19.374 73.3831 19.6654 73.5288 20.1754 73.5288L25.7127 73.3831L32.4885 73.4559L36.6414 73.2373C37.6614 73.0916 38.7543 72.873 39.8472 72.5816C41.3772 72.0716 42.7615 71.4887 44.0001 70.7602C46.5501 69.2301 48.663 67.0444 50.3388 64.2029C52.0145 61.3614 52.816 58.52 52.816 55.7513C52.816 54.0027 52.4517 52.3999 51.7231 50.8698C50.9945 49.4127 49.9745 48.1012 48.663 47.0083C47.3516 45.9155 45.7487 45.114 44.0001 44.5312C42.1058 43.9483 40.1386 43.6569 37.9529 43.6569C36.1314 43.6569 34.4557 43.8754 32.9256 44.2397C31.9056 44.5312 30.7399 44.8955 29.3556 45.4783C28.0441 46.0612 26.9513 46.6441 25.9312 47.2269C23.4541 48.7569 21.4869 50.5055 20.0297 52.5456C18.5725 54.5856 17.844 56.6256 17.844 58.52C17.844 59.7585 18.2083 60.7786 18.864 61.58C19.5197 62.3086 20.394 62.7457 21.414 62.7457C21.8512 62.7457 22.2155 62.6729 22.5069 62.5272C22.7983 62.3814 22.944 62.2357 22.944 61.9443C22.944 61.8714 22.7983 61.6529 22.5798 61.5071C21.8512 60.8514 21.414 59.8314 21.414 58.52C21.414 56.9899 21.8512 55.387 22.6526 53.7113C23.5269 52.0356 24.6198 50.5784 26.077 49.267C26.8784 48.5384 27.8256 47.8826 28.9184 47.2269C30.157 46.5712 31.2499 46.0612 32.2699 45.6969Z" fill="#535D80"/>
<path id="Vector_2" fill-rule="evenodd" clip-rule="evenodd" d="M75.3293 57.0627C74.8922 56.5527 74.3093 56.3341 73.5807 56.3341C72.3421 56.3341 70.7393 56.917 68.7721 58.1556C68.1892 58.5199 67.7521 58.8113 67.5335 58.957C67.3149 59.1756 67.1692 59.3942 67.1692 59.5399C67.1692 59.6856 67.2421 59.7585 67.3149 59.8313C67.3878 59.9042 67.4606 59.9771 67.6063 59.9771C67.7521 59.9771 67.8978 59.9042 68.1164 59.7585L68.6992 59.3213C69.4278 58.8113 70.0107 58.5927 70.375 58.5927C70.8121 58.5927 71.0307 58.8842 71.0307 59.3942C71.0307 59.7585 70.8121 60.3413 70.375 61.2885L68.1892 65.2957C66.8049 67.7 66.0763 69.5215 66.0763 70.6144C66.0763 71.4887 66.4406 72.2901 67.0963 72.8001C67.7521 73.383 68.6992 73.6016 69.7192 73.6016C71.1764 73.6016 72.7064 73.0916 74.3093 71.9987C75.9122 70.9058 77.5151 69.3758 79.0451 67.4086C80.3566 65.7329 81.3766 64.13 82.1052 62.5271C82.8337 60.9242 83.198 59.5399 83.198 58.5199C83.198 57.7184 82.9795 57.0627 82.5423 56.6256C82.1052 56.1884 81.5223 55.9698 80.7208 55.9698C80.2108 55.9698 79.7737 56.0427 79.3365 56.1884C78.9722 56.3341 78.7537 56.5527 78.7537 56.7713L78.8265 56.9899L79.118 57.427C79.4823 58.0827 79.7008 58.8113 79.7008 59.6856C79.7008 61.1428 79.3365 62.7457 78.608 64.4943C77.8794 66.2429 76.9322 67.8458 75.7665 69.2301C75.0379 70.1044 74.2365 70.8329 73.5079 71.343C72.7064 71.853 71.9778 72.0715 71.395 72.0715C70.9578 72.0715 70.7393 71.9987 70.4478 71.7801C70.2292 71.5615 70.0835 71.2701 70.0835 70.9058C70.0835 70.3229 70.7393 68.8658 72.1964 66.5343L73.945 63.5471C74.6007 62.4542 75.1108 61.5799 75.4022 60.8514C75.6936 60.1228 75.8393 59.467 75.8393 58.8842C75.9851 58.1556 75.7665 57.4999 75.3293 57.0627Z" fill="#535D80"/>
<path id="Vector_3" fill-rule="evenodd" clip-rule="evenodd" d="M61.9232 56.4799H61.6317C59.6646 56.4799 57.6974 57.2084 55.6574 58.6656C54.1273 59.7585 52.8887 61.2157 51.9416 62.8914C50.9944 64.64 50.5573 66.2429 50.5573 67.9186C50.5573 69.5944 51.0673 70.9787 52.0873 71.9987C53.1073 73.0187 54.4188 73.6016 56.0217 73.6016C57.2602 73.6016 58.5717 73.3101 59.8103 72.7273C61.1217 72.0715 62.2875 71.1972 63.4532 70.1044C64.6189 68.9386 65.5661 67.6272 66.2218 66.2429C66.8775 64.8586 67.169 63.4743 67.169 62.0171C67.169 60.3414 66.659 59.0299 65.7847 58.0099C64.7647 57.0627 63.5261 56.4799 61.9232 56.4799ZM61.9232 57.2813C62.506 57.2813 62.9432 57.4999 63.3075 57.7913C63.5989 58.0827 63.7446 58.5199 63.7446 59.1028C63.7446 59.6856 63.5989 60.4142 63.2346 61.2156C62.9432 62.0171 62.4332 63.1828 61.6317 64.64L59.6646 68.3558C59.0817 69.3758 58.5717 70.2501 58.0617 70.9787C57.6245 71.5615 57.3331 71.9258 56.896 72.2173C56.5317 72.5087 56.0945 72.5815 55.6574 72.5815C55.1474 72.5815 54.7102 72.4358 54.3459 72.0715C53.9816 71.7801 53.8359 71.343 53.8359 70.8329C53.8359 70.1044 54.2731 68.7201 55.0745 66.7529C55.9488 64.7128 57.0417 62.6 58.426 60.4142C59.1546 59.1756 59.8103 58.3742 60.2474 57.937C60.7574 57.4999 61.3403 57.2813 61.9232 57.2813Z" fill="#535D80"/>
<path id="Vector_4" fill-rule="evenodd" clip-rule="evenodd" d="M96.0937 56.917C95.4379 56.4798 94.4908 56.2612 93.1793 56.2612C91.1393 56.2612 89.0993 56.9898 87.0592 58.5198C85.3106 59.7584 83.9263 61.3613 82.7606 63.1828C81.6677 65.0042 81.0848 66.68 81.0848 68.2829C81.0848 69.8129 81.6677 71.1243 82.6877 72.0715C83.7806 73.0186 85.1649 73.5287 86.9135 73.5287C89.6093 73.5287 92.1593 72.2172 94.4908 69.6672C95.0736 69.0114 95.4379 68.5014 95.4379 68.21C95.4379 68.0643 95.3651 67.9914 95.2922 67.8457C95.2194 67.7728 95.0736 67.7 94.9279 67.7C94.7822 67.7 94.6365 67.7728 94.5636 67.8457L94.0536 68.4286C92.1593 70.9058 90.265 72.1443 88.4435 72.1443C87.5692 72.1443 86.9135 71.8529 86.4035 71.27C85.8935 70.6872 85.6749 69.8857 85.6749 68.9386C85.6749 67.9186 86.0392 66.6071 86.7678 65.0042L87.6421 64.9314C90.5564 64.6399 92.815 63.9842 94.4908 62.9642C96.1665 61.9442 96.9679 60.6327 96.9679 59.0298C97.1137 58.0098 96.7494 57.3541 96.0937 56.917ZM92.5236 57.0627C92.8879 57.0627 93.1065 57.1355 93.325 57.3541C93.5436 57.5727 93.6165 57.7913 93.6165 58.0827C93.6165 58.5927 93.3979 59.1756 93.0336 59.9041C92.6693 60.6327 92.1593 61.2885 91.5764 61.9442C91.0664 62.527 90.4107 62.9642 89.6821 63.3285C88.9535 63.6928 88.2978 63.9114 87.6421 63.9114C87.4235 63.9114 87.3507 63.8385 87.3507 63.7656C87.3507 63.6928 87.4964 63.4013 87.7149 62.8913C88.225 61.9442 88.6621 61.0699 89.0993 60.4142C89.9007 59.1756 90.4836 58.3013 90.9936 57.7913C91.5764 57.3541 92.0136 57.0627 92.5236 57.0627Z" fill="#535D80"/>
<path id="Vector_5" fill-rule="evenodd" clip-rule="evenodd" d="M74.2365 41.5439C73.2893 41.6896 72.415 42.0539 71.6864 42.4182L68.9178 44.094C67.6792 44.8225 66.9506 45.3325 66.6592 45.4783C66.222 45.6968 65.712 45.9154 65.1292 46.0611C64.4734 46.2797 63.8906 46.4254 63.4534 46.4254C62.142 46.4254 61.5591 46.5711 61.8505 46.7169C61.9963 46.8626 62.5063 47.0083 63.4534 47.2269C64.4734 47.5183 65.5663 47.664 66.8049 47.8097C68.0435 47.9554 69.2821 47.9554 70.375 47.8826C71.0307 47.8097 71.395 48.0283 71.6136 48.4654C71.7593 48.8297 71.6864 49.194 71.3221 49.6312C71.0307 49.9955 70.4478 50.2869 69.4278 50.5055L66.6592 51.1612C64.5463 51.7441 62.3605 52.6912 60.1748 54.0755C58.7176 55.0227 59.2276 55.0227 61.7777 54.0027C62.2877 53.7841 63.0163 53.6384 63.9634 53.4927L67.0963 53.347L69.4278 53.6384L71.4678 54.0755C73.1436 54.4398 74.8922 54.5127 76.6408 54.367C78.4622 54.2213 79.9194 53.7112 81.0851 52.7641C81.5223 52.4727 81.8137 52.1084 82.178 51.7441L82.7609 51.0884C82.9795 50.7969 83.4895 49.9955 84.1452 48.684C84.8009 47.4454 85.2381 46.7169 85.4566 46.4983L86.1124 45.8426C86.4038 45.624 86.7681 45.4783 87.2052 45.4054L86.0395 44.4582C85.5295 44.0211 85.0923 43.8025 84.5823 43.8025C84.2909 43.8025 83.9266 43.8754 83.5623 44.0211C83.3437 44.094 82.9066 44.4582 82.3237 44.8954C81.668 45.5511 81.158 45.9154 80.9394 46.0611C80.4294 46.4254 80.0651 46.4254 79.7737 46.2068C79.5551 45.9883 79.4823 45.624 79.5551 45.2597C79.7008 43.7297 79.1908 42.6368 77.9522 41.9811C76.8594 41.3982 75.6208 41.2525 74.2365 41.5439ZM83.9995 44.7497C83.9995 44.604 83.9995 44.5311 84.0723 44.4582C84.1452 44.3854 84.218 44.3854 84.3638 44.3854C84.4366 44.3854 84.5823 44.3854 84.6552 44.4582C84.7281 44.5311 84.8009 44.604 84.8009 44.7497C84.8009 44.8225 84.8009 44.9683 84.7281 45.0411C84.6552 45.114 84.5823 45.1868 84.5095 45.1868C84.3638 45.1868 84.2909 45.1868 84.218 45.114C84.0723 44.8954 83.9995 44.8225 83.9995 44.7497Z" fill="#DEB839"/>
</g>
</g>
</svg>
