<svg width="115" height="115" viewBox="0 0 115 115" fill="none" xmlns="http://www.w3.org/2000/svg">
<g id="logoi-05">
<g id="Group">
<path id="path9_2_" fill-rule="evenodd" clip-rule="evenodd" d="M90.7725 60.2363H86.7732C86.7732 58.2016 87.3345 57.0088 87.7554 56.5878C88.2466 56.1669 88.8079 55.7459 89.5095 55.7459C90.7023 55.7459 91.6846 57.1492 91.6846 58.4823C91.6846 59.1137 91.8249 60.2363 90.7725 60.2363ZM86.8433 61.0783H92.1757C93.5089 61.0783 94 60.0259 94 59.2541C94 58.0613 93.5089 57.079 92.8774 56.3072C92.0354 55.3249 90.8426 54.8338 89.5095 54.8338C87.9659 54.8338 86.8433 55.4652 85.9312 56.5177C85.0191 57.5701 84.4578 58.7629 84.4578 60.4468C84.4578 62.1308 84.8086 63.534 85.9312 64.5865C86.9837 65.7091 88.1063 66.1301 89.7902 66.1301C90.9128 66.1301 91.8951 65.4986 92.3161 65.218C93.0177 64.7268 93.7895 63.534 93.8597 62.8324C93.7193 62.6921 93.7193 62.4816 93.5089 62.4816C93.2984 62.4816 93.0879 62.6921 93.0177 62.8324C92.3161 64.1655 91.4039 64.9373 90.0708 64.9373C87.6853 64.9373 86.8433 63.0429 86.8433 61.0783ZM76.1785 55.1144L79.3358 65.8494H81.2303C82.1424 62.0606 83.4755 58.3419 85.3699 54.9039H84.1069C82.7037 57.5701 81.6512 60.4468 80.8093 63.3937L78.2834 55.1144H76.1785ZM73.0211 55.1144H75.126V65.8494H73.0211V55.1144ZM74.0736 51.4659C74.705 51.4659 75.2664 52.0272 75.2664 52.6587C75.2664 53.2902 74.705 53.8515 74.0736 53.8515C73.4421 53.8515 72.8808 53.2902 72.8808 52.6587C72.8808 52.0272 73.4421 51.4659 74.0736 51.4659ZM68.3903 50.8344C69.3726 50.3433 70.5654 49.782 71.4074 49.7118V65.8494H69.3025V52.5184C69.3025 51.6764 69.0218 51.0449 68.3903 51.0449C68.3903 50.9748 68.3202 50.9046 68.3903 50.8344ZM58.357 60.5872C58.357 62.2009 58.8481 63.534 59.7602 64.5865C60.7425 65.6389 61.8651 66.1301 63.1982 66.1301C64.6015 66.1301 65.8645 65.6389 66.8467 64.5163C67.829 63.3937 68.25 61.9904 68.25 60.3767C68.25 59.6049 68.1799 58.8331 67.8992 58.1314C67.6185 57.3596 67.1976 56.7282 66.7064 56.237C66.2153 55.6757 65.654 55.3951 65.1628 55.1846C64.6717 54.9741 63.8297 54.8338 63.1982 54.8338C61.7248 54.8338 60.6724 55.2547 59.6901 56.3072C58.778 57.3596 58.357 58.9032 58.357 60.5872ZM66.0048 60.7977C66.0048 62.0606 65.7241 63.0429 65.233 63.8147C64.7418 64.6566 64.0402 65.0075 63.1982 65.0075C62.3563 65.0075 61.5845 64.5163 61.0933 63.4639C60.6724 62.4816 60.6724 61.359 60.6724 60.0259C60.6724 58.7629 60.8127 57.7806 61.3038 57.0088C61.795 56.1669 62.5668 55.7459 63.3386 55.7459C64.2507 55.7459 64.8822 56.237 65.3733 57.2895C65.8645 58.3419 66.0048 59.4646 66.0048 60.7977ZM43.9735 56.0265C44.8856 56.1669 44.8856 57.0088 44.8856 57.9911V65.7793H46.9203V57.1492C47.5518 56.7282 48.3236 56.1669 49.0252 56.1669C49.797 56.1669 49.9374 57.5 49.9374 58.2016V65.8494H52.0423V57.1492C52.8141 56.658 53.0246 56.1669 54.1472 56.237C54.919 56.237 55.0593 57.1492 55.0593 57.7806V65.8494H57.1642V57.921C57.1642 56.5177 56.8134 54.8338 54.8488 54.8338C53.7262 54.8338 53.235 55.0443 51.9019 56.1669C51.6914 55.4652 50.639 54.8338 49.8672 54.8338C48.4639 54.8338 47.7623 55.5354 46.8502 56.0967V54.8338C46.4292 54.8338 44.8856 55.1144 43.9735 56.0265ZM40.1145 50.8344C41.0968 50.3433 42.2895 49.782 43.1315 49.7118V65.8494H41.0266V52.5184C41.0266 51.6764 40.7459 51.0449 40.1145 51.0449C40.1145 50.9748 40.0443 50.9046 40.1145 50.8344ZM37.4483 65.8494H39.5532V55.3249C39.1322 54.9741 37.5184 54.9741 37.1676 54.9741C33.2385 54.9741 30.0811 57.4298 30.0811 61.8501C30.0811 65.0776 32.5368 66.1301 34.0804 66.1301C35.624 66.1301 36.5361 65.4986 36.887 64.9373C37.0273 64.797 36.887 64.5163 36.7466 64.5163C36.466 64.5865 36.1152 65.2179 34.8522 65.2881C34.2208 65.2881 33.6594 65.0776 33.3788 64.8671C32.6772 64.376 32.186 62.9727 32.186 61.7799C32.186 59.5347 33.3788 56.0967 36.045 55.8862C36.3958 55.8862 37.0975 55.7459 37.3781 55.8862C37.6588 56.0265 37.4483 56.0967 37.4483 56.237V65.8494ZM23.3454 65.8494V50.1328C23.9067 49.9223 24.468 49.7118 24.9592 49.7118C27.2746 49.7118 28.9585 51.5361 28.9585 54.4128C28.8883 57.7806 27.2746 58.9734 25.9415 59.1137C24.468 59.1839 24.2575 58.6928 23.6962 58.6928C23.4857 58.6928 23.2051 58.9032 23.6261 59.2541C24.3979 59.8855 25.8011 59.9557 26.7133 59.8855C28.748 59.8154 31.2037 57.7105 31.2037 54.2725C31.2037 51.4659 29.0988 48.8699 25.5205 48.8699C24.2575 48.8699 22.1526 49.0804 21.1002 49.361V65.7793L23.3454 65.8494Z" fill="#00B082"/>
</g>
</g>
</svg>
