<svg width="20" height="20" viewBox="0 0 20 20" fill="none" xmlns="http://www.w3.org/2000/svg">
<g id="Frame" clip-path="url(#clip0_263_59)">
<path id="Vector" d="M18.3333 3.34168C17.5 3.75001 16.6833 3.91584 15.8333 4.16668C14.8992 3.11251 13.5142 3.05418 12.1833 3.55251C10.8525 4.05084 9.98082 5.26918 9.99999 6.66668V7.50001C7.29582 7.56918 4.88749 6.33751 3.33332 4.16668C3.33332 4.16668 -0.151677 10.3608 6.66666 13.3333C5.10666 14.3725 3.55082 15.0733 1.66666 15C4.42332 16.5025 7.42749 17.0192 10.0283 16.2642C13.0117 15.3975 15.4633 13.1617 16.4042 9.81251C16.6848 8.7939 16.8242 7.74156 16.8183 6.68501C16.8167 6.47751 18.0767 4.37501 18.3333 3.34084V3.34168Z" stroke="white" stroke-width="1.25" stroke-linecap="round" stroke-linejoin="round"/>
</g>
<defs>
<clipPath id="clip0_263_59">
<rect width="20" height="20" fill="white"/>
</clipPath>
</defs>
</svg>
