<svg width="86" height="85" viewBox="0 0 86 85" fill="none" xmlns="http://www.w3.org/2000/svg">
<g id="Frame" clip-path="url(#clip0_263_25)">
<path id="Vector" d="M43.4854 84.6547C66.9655 84.6547 85.9999 65.7041 85.9999 42.3274C85.9999 18.9506 66.9655 0 43.4854 0C20.0053 0 0.970856 18.9506 0.970856 42.3274C0.970856 65.7041 20.0053 84.6547 43.4854 84.6547Z" fill="url(#paint0_linear_263_25)"/>
<path id="Vector_2" d="M5.47908 18.7815C6.03392 24.2364 15.2581 34.5248 24.2049 36.4582C33.013 38.3225 35.5097 39.0821 58.813 34.0414C64.292 32.8676 74.0017 32.3843 80.3823 40.325C86 47.299 88.4275 58.0016 75.4581 70.0853C85.8613 49.7847 69.0081 43.5703 58.1888 45.7799C9.57102 55.3087 4.64219e-05 28.1722 5.47908 18.7815Z" fill="#D81F26"/>
<path id="Vector_3" d="M0.554901 30.0366C0.554901 30.0366 9.50168 58.2088 37.4517 57.3802C44.8726 57.1731 61.8646 51.442 66.6501 62.2828C71.0888 72.364 58.0501 81.8238 58.0501 81.8238C58.0501 81.8238 65.5404 69.6711 55.0678 67.1853C50.9759 66.2186 42.3759 66.7019 38.1452 66.7019C3.81458 66.7019 0.554901 30.0366 0.554901 30.0366Z" fill="#D81F26"/>
<path id="Vector_4" d="M0 45.0894C12.2758 77.1974 37.3129 78.5093 48.5484 76.3688C50.1435 76.0926 54.1661 75.8855 54.7903 78.4403C55.6226 81.8237 52.0855 83.3428 50.3516 83.9643C34.4694 89.143 2.9129 75.8855 0 45.0894Z" fill="#D81F26"/>
</g>
<defs>
<linearGradient id="paint0_linear_263_25" x1="43.495" y1="-0.409257" x2="43.495" y2="84.667" gradientUnits="userSpaceOnUse">
<stop stop-color="#D7D6D5"/>
<stop offset="0.2576" stop-color="#797878"/>
<stop offset="0.357" stop-color="#9B9999"/>
<stop offset="0.461" stop-color="#BEBBBB"/>
<stop offset="0.5575" stop-color="#D9D8D7"/>
<stop offset="0.6427" stop-color="#EDECEC"/>
<stop offset="0.7076" stop-color="#F5F5F5"/>
<stop offset="0.9968" stop-color="#ABABAB"/>
</linearGradient>
<clipPath id="clip0_263_25">
<rect width="86" height="85" fill="white"/>
</clipPath>
</defs>
</svg>
