<svg width="115" height="115" viewBox="0 0 115 115" fill="none" xmlns="http://www.w3.org/2000/svg">
<g id="logoi-03">
<g id="Group">
<path id="Vector" d="M76.4753 53.075H70.7752V55.625H76.4753V59.075H70.7752V61.925H76.4753V66.65H64.8503V48.5H76.4753V53.075Z" fill="#233D74"/>
<path id="Vector_2" d="M88.9252 47C85.2502 53.525 77.9753 66.65 77.9753 66.65H84.2002L85.1752 64.7H92.6003L93.5752 66.65H99.8002L88.9252 47ZM86.6003 61.7L88.8503 57.05L91.1003 61.7H86.6003Z" fill="#233D74"/>
<path id="Vector_3" d="M53.4502 56.5999L57.5002 48.4249H63.8752L53.4502 67.9249L43.0252 48.4249H49.4002C49.4002 48.4999 53.1502 56.0749 53.4502 56.5999Z" fill="#233D74"/>
<path id="Vector_4" d="M42.05 66.65H36.125V48.5H42.05V66.65Z" fill="#233D74"/>
<path id="Vector_5" d="M24.8001 55.5501V48.5001H30.8001V68.0001L21.1251 59.6001V66.6501H15.2001V47.0751L24.8001 55.5501Z" fill="#233D74"/>
</g>
</g>
</svg>
