<svg width="115" height="115" viewBox="0 0 115 115" fill="none" xmlns="http://www.w3.org/2000/svg">
<g id="logoi-02">
<g id="Group">
<path id="Vector" fill-rule="evenodd" clip-rule="evenodd" d="M58.4198 35.6535L68.6792 33.1L73.5613 66.7919L78.5849 49.5558L70.0943 32.8872L77.7359 30.8302L81.8396 38.9163L85.1651 29.1279L93.6557 27L86.7217 48.2791L95 64.7349L87.2877 66.5791L83.5377 58.2802L80.7783 68.2105L72.5 70.4093L72.5708 70.2674L67.4057 71.5442L66.1321 65.1605L65.7075 65.2314L65.283 65.3733L64.8585 65.657L64.434 65.7988L64.0094 66.0116L63.6557 66.2244L63.3019 66.4372L62.9481 66.65L62.5943 66.9337L62.2406 67.2174L61.8868 67.5012L61.6038 67.7849L61.3208 68.0686L61.0377 68.3523L60.684 68.7779L60.4009 69.1326L60.1179 69.4872L59.8349 69.8419L59.5519 70.1965L59.2689 70.5512L58.8443 71.2605L58.4198 71.9698L58.066 72.6791L57.783 73.3884L57.5 74.0267L57.2877 74.6651L49.6462 76.2965L58.4198 35.6535ZM44.3396 39.2709L51.7689 37.4267L50.0708 71.5442L50 72.9628L49.8585 74.3105L49.717 75.5163L49.5047 76.6512L49.2925 77.7151L49.0094 78.7081L48.7264 79.6302L48.4434 80.4814L48.1604 81.2616L47.8066 81.9709L47.4528 82.6093L47.0991 83.1767L46.7453 83.7442L46.3208 84.2407L45.8962 84.6663L45.4717 85.0919L45.0472 85.4465L44.6226 85.8012L44.1981 86.0849L43.7736 86.3686L43.3491 86.5814L42.9953 86.7942L42.7123 86.936L42.3585 87.0779L41.7217 87.3616L41.1557 87.5744L40.6604 87.7872L40.4481 87.9291L40.3066 88L39.8113 83.5314L40.0236 83.4605L40.2358 83.3895L40.3774 83.3186L40.5189 83.2477L40.8019 83.0349L41.0849 82.8221L41.3679 82.5384L41.5802 82.2547L41.7925 81.9L42.0047 81.5453L42.1462 81.1198L42.2877 80.6942L42.4292 80.2686L42.5 79.843L42.5708 79.3465L42.6415 78.85L42.7123 78.3535L42.783 77.857L36.2736 79.5593L35 72.75L34.717 72.8209L34.3632 72.9628L34.0094 73.1046L33.7264 73.2465L33.3726 73.4593L33.0896 73.6721L32.8066 73.8849L32.5236 74.0977L32.2406 74.3814L31.9575 74.6651L31.6038 74.8779L31.3208 75.1616L30.967 75.4454L30.684 75.7291L30.1179 76.3674L29.6226 77.0058L29.1274 77.7151L28.7028 78.4244L28.2783 79.1337L27.9245 79.843L27.6415 80.5523L27.3585 81.1907L27.1462 81.8291L20 83.5314L28.3491 43.1012L37.8302 40.9023L42.9245 75.8709L42.9953 74.736V73.6721L43.066 71.686L44.3396 39.2709ZM63.2311 47.4279L64.9292 57.7837L63.8679 58.2093L63.3726 58.4221L62.8774 58.6349L62.6651 58.7767L62.4528 58.9186L62.2406 59.0605L61.9575 59.2733L61.7453 59.486L61.533 59.7698L61.3208 60.0535L61.1085 60.3372L63.2311 47.4279ZM32.3821 55.1593L34.1509 65.5151L33.8679 65.586L33.5849 65.657L33.3019 65.7279L33.0189 65.8698L32.7358 66.0116L32.4528 66.1535L32.2406 66.3663L31.9575 66.5081L31.7453 66.65L31.533 66.8628L31.3208 67.0756L31.1085 67.2884L30.8962 67.5012L30.684 67.714L30.5425 67.9267L30.4009 68.1395L32.3821 55.1593Z" fill="#CD2032"/>
</g>
</g>
</svg>
